<svg width="28" height="23" viewBox="0 0 28 23" fill="none" xmlns="http://www.w3.org/2000/svg">
<path d="M1.98725 9.70318C1.15886 9.71022 0.493014 10.3875 0.500054 11.2159C0.507094 12.0443 1.18435 12.7101 2.01275 12.7031L1.98725 9.70318ZM27.0688 12.0508C27.6496 11.46 27.6415 10.5103 27.0507 9.92954L17.424 0.465064C16.8333 -0.115724 15.8836 -0.107653 15.3028 0.483091C14.722 1.07383 14.7301 2.02355 15.3208 2.60433L23.8779 11.0172L15.465 19.5743C14.8842 20.165 14.8923 21.1147 15.483 21.6955C16.0738 22.2763 17.0235 22.2682 17.6043 21.6775L27.0688 12.0508ZM2 11.2031L2.01275 12.7031L26.0119 12.4991L25.9991 10.9992L25.9864 9.49923L1.98725 9.70318L2 11.2031Z" fill="#7E2D8A"/>
</svg>
