<svg width="107" height="100" viewBox="0 0 107 100" fill="none" xmlns="http://www.w3.org/2000/svg">
<g clip-path="url(#clip0_3164_12630)">
<path d="M33.0035 34.127H36.7116C38.9671 34.127 40.7829 35.895 40.7829 38.074V57.8571C40.7829 60.0361 38.9575 61.8042 36.7116 61.8042H5.10646C2.851 61.8042 1.03516 60.0361 1.03516 57.8571V38.074C1.03516 35.895 2.86055 34.127 5.10646 34.127H9.51226" fill="white"/>
<path d="M33.0028 34.6045C34.5319 34.6045 36.3956 34.3178 37.8769 34.7861C39.8456 35.4168 40.3139 37.204 40.3139 39.0103V49.848C40.3139 52.5048 40.4382 55.1999 40.3139 57.8472C40.1228 61.7847 36.0802 61.3164 33.3182 61.3164H6.27174C5.25869 61.3164 4.26476 61.3833 3.33772 60.8672C1.71302 59.9689 1.51233 58.4302 1.51233 56.7959V40.2814C1.51233 39.3734 1.41676 38.3986 1.56967 37.5003C2.08575 34.4898 5.08666 34.6045 7.4377 34.6045H9.52113C10.1328 34.6045 10.1328 33.6488 9.52113 33.6488C7.90599 33.6488 6.22395 33.5054 4.60881 33.6774C2.25778 33.9355 0.613964 35.8469 0.547065 38.1693C0.461051 41.5429 0.547065 44.9356 0.547065 48.3188C0.547065 51.4822 0.43238 54.6743 0.547065 57.8377C0.633078 60.3703 2.60183 62.1957 5.10578 62.2721C5.79388 62.2912 6.48199 62.2721 7.16054 62.2721H35.8126C36.9594 62.2721 38.068 62.2339 39.0906 61.6127C42.0533 59.8351 41.2601 55.5631 41.2601 52.6482V39.8991C41.2601 38.7427 41.3843 37.4907 40.9256 36.4012C39.9412 34.0406 37.6953 33.6392 35.4207 33.6392H32.9932C32.3816 33.6392 32.3816 34.5949 32.9932 34.5949L33.0028 34.6045Z" fill="#7E2986"/>
<path d="M9.89011 35.3501C9.25934 33.4196 9.19244 31.2024 10.2246 29.463C10.7216 28.6124 11.4575 27.9147 11.8971 27.0355C12.2316 26.3569 12.3845 25.6019 12.7094 24.9138C13.0822 24.1397 13.6651 23.4898 14.2481 22.8495C14.5539 22.515 14.8693 22.171 15.2612 21.9511C15.5861 21.7696 15.9493 21.6835 16.3029 21.5975C17.4306 21.3204 18.5584 21.0432 19.6861 20.7661C20.8425 20.4794 22.018 20.1926 23.1935 20.3169C24.369 20.4411 25.5732 21.0432 26.0798 22.1136C26.5194 21.6835 26.9877 21.2344 27.5707 21.0432C28.1536 20.8521 28.9086 21.0146 29.1954 21.5689C29.3196 21.8078 29.3387 22.0754 29.4056 22.3334C29.7114 23.3943 30.8105 23.9964 31.5464 24.8183C32.4925 25.8791 32.8461 27.3509 32.9322 28.7653C33.0182 30.1798 32.8844 31.6133 32.9991 33.0278C33.0564 33.7159 33.1806 34.4135 33.0564 35.1016C32.9513 35.656 32.6932 36.1625 32.4256 36.6499C31.2597 38.762 29.8261 40.7307 28.1727 42.4797C28.1154 42.279 28.0581 42.0687 28.0103 41.868C27.3508 43.3207 25.9842 44.2955 24.78 45.3468C23.5185 46.4459 22.3907 47.6978 21.0623 48.7109C19.7339 49.7239 18.1378 50.5076 16.4654 50.4789C16.15 50.4789 15.8346 50.4311 15.5574 50.2973C15.2038 50.1253 14.9458 49.8195 14.7069 49.5041C13.7894 48.2617 13.2255 46.7517 13.0917 45.213C13.0153 44.2764 13.0917 43.3207 12.8719 42.4032C12.6139 41.3137 12.2603 40.0044 11.7633 39.0009C11.1516 37.7489 10.3106 36.7168 9.871 35.3597L9.89011 35.3501Z" fill="white"/>
<path d="M21.9446 26.214C20.1574 28.6033 17.7586 30.486 15.0348 31.6998L15.5414 31.7667C15.5414 31.7667 15.5414 31.824 15.5796 31.8144C16.0001 31.4895 15.4076 30.897 14.9966 31.2315C14.6334 31.5182 14.6525 32.0438 14.9584 32.3592C15.1017 32.5026 15.2929 32.5026 15.4649 32.4261C18.3225 31.155 20.7977 29.1385 22.6709 26.6345C22.9958 26.2045 22.2695 25.7935 21.9541 26.214H21.9446Z" fill="#7E2986"/>
<path d="M23.0324 27.0635C23.6058 29.2808 24.7526 31.3164 26.3295 32.9698C26.7023 33.3616 27.2852 32.7691 26.9125 32.3868C25.4312 30.8386 24.3703 28.9272 23.8256 26.8533C23.6918 26.3372 22.889 26.557 23.0228 27.0731L23.0324 27.0635Z" fill="#7E2986"/>
<path d="M14.7162 25.8691C16.1497 24.4356 17.6502 22.9064 19.6285 22.2661C21.3487 21.7118 23.4513 21.9699 24.5217 23.5659C24.818 24.0055 25.5347 23.5946 25.2385 23.1454C24.0629 21.4155 21.8935 20.8612 19.9152 21.32C17.5642 21.8743 15.777 23.6232 14.1236 25.2766C13.7413 25.6589 14.3339 26.2419 14.7066 25.8596L14.7162 25.8691Z" fill="#7E2986"/>
<path d="M27.208 23.9295C27.5999 23.7479 27.9248 23.4517 28.1829 23.1076C28.4409 22.7636 28.5843 22.343 28.632 21.9034C28.6416 21.8078 28.5747 21.6741 28.5078 21.6072C28.4314 21.5307 28.3167 21.4829 28.2115 21.4829C28.1064 21.4829 27.9917 21.5211 27.9153 21.6072C27.8388 21.6932 27.8101 21.7887 27.791 21.9034C27.8101 21.7601 27.791 21.913 27.7815 21.9512C27.7815 21.9894 27.7624 22.0277 27.7528 22.0659C27.7432 22.1137 27.7241 22.1519 27.7146 22.1901C27.705 22.2284 27.6763 22.2666 27.6763 22.3048C27.6763 22.2761 27.7146 22.2188 27.6763 22.2857C27.6763 22.3048 27.6572 22.3239 27.6477 22.343C27.6286 22.3813 27.6094 22.4195 27.5808 22.4577C27.5425 22.5342 27.4948 22.6011 27.4374 22.6775C27.3992 22.7349 27.4852 22.6202 27.447 22.6584C27.4374 22.6775 27.4183 22.6871 27.4087 22.7062C27.3801 22.7349 27.3514 22.7636 27.3227 22.8018C27.2654 22.8687 27.1985 22.926 27.1316 22.9738C27.1125 22.9834 27.0934 23.0025 27.0838 23.012C27.122 22.9834 27.1603 22.9356 27.0838 23.012C27.0551 23.0312 27.0169 23.0598 26.9787 23.0789C26.9022 23.1267 26.8258 23.165 26.7398 23.2032C26.5391 23.2892 26.4817 23.595 26.5868 23.767C26.7206 23.9677 26.9405 24.0155 27.1507 23.92L27.208 23.9295Z" fill="#7E2986"/>
<path d="M27.9841 24.9332C29.3604 26.2998 30.7653 27.8863 31.1189 29.8646C31.4056 31.4606 30.8513 33.3147 29.3508 34.1175C28.8825 34.366 29.303 35.0827 29.7713 34.8343C31.482 33.9263 32.1988 31.8716 31.9694 30.0175C31.6923 27.7429 30.1249 25.908 28.5671 24.3502C28.1848 23.9679 27.6019 24.5604 27.9841 24.9332Z" fill="#7E2986"/>
<path d="M20.01 34.2034C20.4019 34.796 20.6408 35.4745 20.6886 36.1913C20.7077 36.5353 20.6886 36.889 20.6217 37.2235C20.5548 37.5579 20.421 37.9116 20.3732 38.2652C20.2776 38.9342 20.5261 39.6509 21.2429 39.8325C21.8928 39.995 22.5522 39.6605 23.0492 39.2782C23.2307 39.1444 23.1925 38.8386 23.0492 38.6952C22.8771 38.5232 22.6382 38.5614 22.4662 38.6952C22.2081 38.8959 21.6443 39.2113 21.3289 38.9819C21.1282 38.8386 21.1664 38.5423 21.2046 38.3416C21.262 38.0454 21.3671 37.7586 21.4245 37.4624C21.6825 36.2104 21.434 34.8724 20.7364 33.802C20.4401 33.3528 19.7233 33.7734 20.0196 34.2225L20.01 34.2034Z" fill="#7E2986"/>
<path d="M13.5911 27.6473C13.2471 28.5647 12.5112 29.2433 11.9186 29.9887C11.3261 30.7342 10.8578 31.6134 10.81 32.6265C10.7049 34.6144 12.1671 36.3824 14.1168 36.6978C14.6424 36.7838 14.8622 35.981 14.3366 35.895C12.5303 35.5987 11.2688 33.8593 11.7275 32.0339C11.9377 31.2025 12.5016 30.5622 13.0464 29.9218C13.5911 29.2815 14.1072 28.6412 14.4035 27.848C14.5946 27.351 13.7918 27.1312 13.6007 27.6281L13.5911 27.6473Z" fill="#7E2986"/>
<path d="M14.8595 35.3311C14.8881 36.994 15.1079 38.7621 16.0541 40.1861C16.8664 41.4094 18.1566 42.3173 19.6571 42.3937C20.1923 42.4224 20.1923 41.591 19.6571 41.5623C18.3956 41.4954 17.3061 40.6448 16.6657 39.5935C15.8916 38.3224 15.71 36.7933 15.6909 35.3311C15.6909 34.7959 14.8499 34.7959 14.8595 35.3311Z" fill="#7E2986"/>
<path d="M27.6467 36.5161C27.7135 38.9245 26.0984 41.2564 23.7952 42.0019C23.2886 42.1644 23.5084 42.9672 24.015 42.8047C26.6623 41.9541 28.5546 39.3068 28.4781 36.5161C28.459 35.9809 27.6275 35.9809 27.6467 36.5161Z" fill="#7E2986"/>
<path d="M25.2773 53.1643C25.392 52.8967 25.4589 52.6005 25.4398 52.3042C25.3825 52.352 25.3251 52.3902 25.2773 52.438V53.1643Z" fill="#7E2986"/>
<path d="M25.2791 50.6897C25.3555 50.661 25.432 50.6228 25.4989 50.5846C25.5945 50.5368 25.6996 50.489 25.7952 50.4508V48.0615C25.6231 48.3673 25.4511 48.6636 25.2695 48.9694V50.6897H25.2791Z" fill="#7E2986"/>
<path d="M23.8739 43.1491H18.6749C17.614 43.1491 16.7539 44.0092 16.7539 45.07V47.918C16.7539 47.918 16.7635 47.9754 16.7539 48.004C16.7539 48.0232 16.773 48.0423 16.7635 48.0709V48.1187V48.1378C16.7635 48.1378 16.7635 48.1378 16.7635 48.1474C16.7635 48.1474 16.7635 48.1474 16.7635 48.157C16.7635 48.1856 16.7826 48.2047 16.7921 48.2239C16.7921 48.2334 16.7921 48.243 16.8017 48.2525C16.8208 48.2716 16.8399 48.2812 16.8495 48.3003C16.8781 48.3003 16.9068 48.3194 16.9355 48.3194C16.9642 48.3194 16.9928 48.3194 17.0215 48.3194C17.0406 48.3194 17.0597 48.3194 17.0693 48.3194C17.0693 48.3194 17.0788 48.3099 17.0884 48.3003C17.1171 48.2812 17.1457 48.2621 17.184 48.243C17.184 48.2334 17.1935 48.2239 17.2031 48.2143C17.2031 48.2047 17.2126 48.1952 17.2222 48.1856C17.2222 48.1856 17.2222 48.1761 17.2222 48.1665V48.1474V45.0318C17.2222 44.2577 17.853 43.6269 18.6271 43.6269H23.8261C24.6002 43.6269 25.231 44.2577 25.231 45.0318V46.0353C25.3839 45.9015 25.5655 45.7677 25.7566 45.6912V45.0318C25.7566 43.971 24.8965 43.1108 23.8357 43.1108L23.8739 43.1491Z" fill="#7E2986"/>
<path d="M17.7516 52.9357C18.5926 51.5022 18.6499 49.7437 17.9236 48.2528C17.7898 47.9661 17.3502 47.9947 17.2068 48.2528C15.7637 50.8236 15.0278 53.7576 15.0851 56.7012C15.0947 57.2364 15.9262 57.2364 15.9166 56.7012C15.8688 53.901 16.5569 51.1199 17.9236 48.6733H17.2068C17.7993 49.8966 17.7229 51.3492 17.0348 52.5152C16.7672 52.9739 17.484 53.3945 17.7516 52.9357Z" fill="#7E2986"/>
<path d="M24.6646 50.8808C25.066 50.1831 25.4578 49.4855 25.8592 48.7878C26.1842 48.2144 26.5664 47.6409 26.834 47.0388C27.0347 46.5801 27.1685 45.9685 26.7958 45.5575C26.3753 45.0892 25.7254 45.223 25.2571 45.5575C24.6837 45.9589 24.1963 46.4941 23.6802 46.9624C23.0686 47.5167 22.4569 48.0806 21.8453 48.6349C20.6602 49.7148 19.4751 50.7948 18.29 51.8747C17.8982 52.2379 18.4812 52.8209 18.873 52.4577C20.8227 50.6801 22.7818 48.912 24.7315 47.1344C24.9609 46.9242 25.1902 46.7139 25.4196 46.5037C25.5725 46.3699 25.8688 46.0354 26.0981 46.0927C26.4422 46.1883 25.9548 46.9528 25.8497 47.1249C25.2189 48.2335 24.5786 49.3421 23.9478 50.4603C23.6802 50.9286 24.397 51.3491 24.6646 50.8808Z" fill="#7E2986"/>
<path d="M24.2849 51.2821C24.8774 51.349 25.3935 51.091 25.9096 50.8521C26.1772 50.7278 27.1042 50.3551 27.1998 50.9285C27.2475 51.2152 26.8175 51.5784 26.655 51.7791C26.4256 52.0754 26.2345 52.4385 26.3301 52.8304C26.4352 53.2987 26.9704 53.5281 27.0182 54.0059C27.066 54.5698 26.6263 55.0285 26.2249 55.3534C25.403 56.0033 24.3804 56.5099 24.1702 57.6376C24.065 58.1632 24.8678 58.383 24.973 57.8574C25.2119 56.6054 26.8175 56.2231 27.4769 55.2483C27.7827 54.8087 27.9356 54.2162 27.8114 53.6905C27.7541 53.442 27.6298 53.2318 27.4578 53.0406C27.3144 52.8782 27.0946 52.7539 27.1711 52.515C27.3049 52.1423 27.7158 51.8747 27.8974 51.5115C28.1077 51.0719 28.0599 50.5654 27.7158 50.2118C27.3144 49.8104 26.7315 49.7339 26.1963 49.8677C25.5464 50.0302 24.9825 50.5463 24.2849 50.4602C23.7592 50.4029 23.7592 51.2344 24.2849 51.2917V51.2821Z" fill="#7E2986"/>
<path d="M22.6408 54.9327C24.2178 55.2958 25.9094 53.9483 25.8616 52.314C25.8616 52.1516 25.766 51.9987 25.6035 51.9318C25.4411 51.8649 25.2882 51.9126 25.1544 52.0178C24.2464 52.7441 23.3194 53.4609 22.4115 54.1777C22.2395 54.321 22.2681 54.6173 22.4115 54.7606C22.5835 54.9327 22.8224 54.904 22.9945 54.7606C23.9119 54.0439 24.8294 53.3271 25.7373 52.6007L25.0301 52.3045C25.0301 52.5052 25.0301 52.6199 24.9728 52.8014C24.9154 52.983 24.8963 53.0404 24.8007 53.1933C24.7625 53.2506 24.7243 53.3175 24.6861 53.3749C24.6574 53.4131 24.7147 53.3462 24.6669 53.394C24.6383 53.4227 24.6192 53.4513 24.5905 53.48C24.5427 53.5373 24.4854 53.5947 24.428 53.6425C24.3993 53.6616 24.3802 53.6902 24.3516 53.7094C24.342 53.7094 24.256 53.7858 24.2847 53.7667C24.3229 53.738 24.2369 53.7954 24.2273 53.8049C24.1986 53.824 24.1604 53.8527 24.1317 53.8718C24.0744 53.9101 24.0075 53.9483 23.9406 53.977C23.9024 53.9961 23.8737 54.0152 23.8355 54.0247C23.7973 54.0439 23.8833 54.0056 23.8068 54.0343C23.7304 54.063 23.6635 54.0821 23.587 54.1012C23.5201 54.1203 23.4532 54.1299 23.3767 54.149C23.3481 54.149 23.3481 54.149 23.3959 54.149C23.3767 54.149 23.3576 54.149 23.3385 54.149C23.3098 54.149 23.2716 54.149 23.2429 54.149C23.1665 54.149 23.09 54.149 23.0136 54.149C22.9276 54.149 23.0709 54.1681 22.9658 54.149C22.9276 54.149 22.8893 54.1299 22.8511 54.1299C22.6408 54.0821 22.3924 54.1968 22.3446 54.4166C22.2968 54.6268 22.4115 54.8753 22.6313 54.9231L22.6408 54.9327Z" fill="#7E2986"/>
<path d="M13.6086 43.5026C8.24707 45.9587 5.36084 52.1708 5.24616 57.8381C5.2366 58.4976 6.25921 58.4976 6.26876 57.8381C6.38345 52.5053 9.07854 46.6946 14.1247 44.3818C14.7268 44.1047 14.2011 43.2254 13.6086 43.5026Z" fill="#7E2986"/>
<path d="M29.2044 44.9167C33.0941 48.4146 35.426 53.3364 36.3053 58.4495C36.4199 59.0993 37.4043 58.8222 37.2896 58.1819C36.3913 52.9159 33.9351 47.8029 29.9307 44.1999C29.4433 43.7603 28.717 44.4771 29.2044 44.9262V44.9167Z" fill="#7E2986"/>
</g>
<path d="M18.5 11.4395C18.8839 12.391 19.4793 13.2591 20.2305 13.9602C21.1987 11.8958 22.4284 9.95384 23.8696 8.18994" stroke="#7E2986" stroke-width="1.26057" stroke-linecap="round" stroke-linejoin="round"/>
<path d="M21.1845 17.5267C24.654 17.5267 27.4666 14.7141 27.4666 11.2446C27.4666 7.77502 24.654 4.9624 21.1845 4.9624C17.715 4.9624 14.9023 7.77502 14.9023 11.2446C14.9023 14.7141 17.715 17.5267 21.1845 17.5267Z" stroke="#7E2986" stroke-width="0.70542" stroke-miterlimit="10"/>
<g clip-path="url(#clip1_3164_12630)">
<path d="M65.3004 52.1655H69.0085C71.264 52.1655 73.0798 53.9336 73.0798 56.1126V75.8957C73.0798 78.0747 71.2544 79.8427 69.0085 79.8427H37.4033C35.1479 79.8427 33.332 78.0747 33.332 75.8957V56.1126C33.332 53.9336 35.1574 52.1655 37.4033 52.1655H41.8091" fill="white"/>
<path d="M65.2997 52.6426C66.8288 52.6426 68.6924 52.3559 70.1738 52.8241C72.1425 53.4549 72.6108 55.2421 72.6108 57.0484V67.8861C72.6108 70.5429 72.7351 73.238 72.6108 75.8853C72.4197 79.8228 68.377 79.3545 65.6151 79.3545H38.5686C37.5556 79.3545 36.5616 79.4214 35.6346 78.9053C34.0099 78.007 33.8092 76.4683 33.8092 74.834V58.3194C33.8092 57.4115 33.7136 56.4367 33.8665 55.5383C34.3826 52.5279 37.3835 52.6426 39.7346 52.6426H41.818C42.4297 52.6426 42.4297 51.6869 41.818 51.6869C40.2029 51.6869 38.5208 51.5435 36.9057 51.7155C34.5547 51.9736 32.9108 53.885 32.8439 56.2073C32.7579 59.581 32.8439 62.9737 32.8439 66.3569C32.8439 69.5203 32.7293 72.7124 32.8439 75.8757C32.93 78.4084 34.8987 80.2338 37.4027 80.3102C38.0908 80.3293 38.7789 80.3102 39.4574 80.3102H68.1094C69.2563 80.3102 70.3649 80.272 71.3875 79.6508C74.3502 77.8732 73.557 73.6012 73.557 70.6863V57.9372C73.557 56.7808 73.6812 55.5288 73.2225 54.4393C72.2381 52.0787 69.9922 51.6773 67.7176 51.6773H65.2901C64.6785 51.6773 64.6785 52.633 65.2901 52.633L65.2997 52.6426Z" fill="#7E2986"/>
<path d="M42.1831 53.3877C41.5523 51.4572 41.4854 49.24 42.5176 47.5006C43.0145 46.65 43.7504 45.9523 44.1901 45.0731C44.5246 44.3945 44.6775 43.6395 45.0024 42.9514C45.3751 42.1773 45.9581 41.5274 46.5411 40.8871C46.8469 40.5526 47.1623 40.2086 47.5541 39.9887C47.8791 39.8072 48.2422 39.7211 48.5959 39.6351C49.7236 39.358 50.8513 39.0808 51.9791 38.8037C53.1355 38.517 54.311 38.2302 55.4865 38.3545C56.662 38.4787 57.8662 39.0808 58.3727 40.1512C58.8123 39.7211 59.2806 39.272 59.8636 39.0808C60.4466 38.8897 61.2016 39.0522 61.4883 39.6065C61.6126 39.8454 61.6317 40.113 61.6986 40.371C62.0044 41.4319 63.1035 42.034 63.8394 42.8559C64.7855 43.9167 65.1391 45.3885 65.2251 46.8029C65.3111 48.2174 65.1773 49.6509 65.292 51.0654C65.3494 51.7535 65.4736 52.4511 65.3494 53.1392C65.2442 53.6936 64.9862 54.2001 64.7186 54.6875C63.5526 56.7996 62.1191 58.7683 60.4657 60.5173C60.4084 60.3166 60.351 60.1063 60.3032 59.9056C59.6438 61.3583 58.2771 62.3331 57.073 63.3844C55.8114 64.4835 54.6837 65.7354 53.3553 66.7485C52.0268 67.7615 50.4308 68.5452 48.7583 68.5165C48.4429 68.5165 48.1276 68.4687 47.8504 68.3349C47.4968 68.1629 47.2388 67.8571 46.9998 67.5417C46.0824 66.2993 45.5185 64.7893 45.3847 63.2506C45.3082 62.314 45.3847 61.3583 45.1649 60.4408C44.9068 59.3513 44.5532 58.042 44.0563 57.0385C43.4446 55.7865 42.6036 54.7544 42.164 53.3973L42.1831 53.3877Z" fill="white"/>
<path d="M46.7524 43.5503L45.5811 46.7713C44.9075 48.6235 44.563 50.5793 44.563 52.5503V52.7441C44.563 53.5466 44.4967 54.3476 44.3648 55.1392V55.1392C44.1332 56.5283 44.1044 57.9437 44.279 59.3412L44.563 61.6127" stroke="#7E2989" stroke-width="0.755807" stroke-linecap="round"/>
<path d="M54.2375 44.2516C52.4504 46.6409 50.0516 48.5236 47.3278 49.7374L47.8343 49.8043C47.8343 49.8043 47.8343 49.8616 47.8725 49.852C48.2931 49.5271 47.7005 48.9346 47.2896 49.2691C46.9264 49.5558 46.9455 50.0814 47.2513 50.3968C47.3947 50.5402 47.5858 50.5402 47.7579 50.4637C50.6154 49.1926 53.0907 47.1761 54.9639 44.6721C55.2888 44.2421 54.5625 43.8311 54.2471 44.2516H54.2375Z" fill="#7E2986"/>
<path d="M55.3253 45.1021C55.8987 47.3194 57.0456 49.355 58.6225 51.0084C58.9952 51.4002 59.5782 50.8077 59.2055 50.4254C57.7241 48.8772 56.6633 46.9657 56.1186 44.8919C55.9848 44.3758 55.182 44.5956 55.3158 45.1117L55.3253 45.1021Z" fill="#7E2986"/>
<path d="M47.013 43.9072C48.4466 42.4737 49.947 40.9445 51.9254 40.3042C53.6456 39.7499 55.7482 40.0079 56.8186 41.604C57.1148 42.0436 57.8316 41.6326 57.5353 41.1835C56.3598 39.4536 54.1904 38.8993 52.2121 39.3581C49.861 39.9124 48.0739 41.6613 46.4205 43.3147C46.0382 43.697 46.6307 44.2799 47.0035 43.8977L47.013 43.9072Z" fill="#7E2986"/>
<path d="M59.5049 41.9671C59.8968 41.7855 60.2217 41.4893 60.4797 41.1452C60.7378 40.8012 60.8811 40.3806 60.9289 39.941C60.9385 39.8454 60.8716 39.7116 60.8047 39.6447C60.7282 39.5683 60.6135 39.5205 60.5084 39.5205C60.4033 39.5205 60.2886 39.5587 60.2121 39.6447C60.1357 39.7308 60.107 39.8263 60.0879 39.941C60.107 39.7977 60.0879 39.9506 60.0783 39.9888C60.0783 40.027 60.0592 40.0653 60.0497 40.1035C60.0401 40.1513 60.021 40.1895 60.0114 40.2277C60.0019 40.266 59.9732 40.3042 59.9732 40.3424C59.9732 40.3137 60.0114 40.2564 59.9732 40.3233C59.9732 40.3424 59.9541 40.3615 59.9445 40.3806C59.9254 40.4189 59.9063 40.4571 59.8777 40.4953C59.8394 40.5718 59.7916 40.6387 59.7343 40.7151C59.6961 40.7725 59.7821 40.6578 59.7439 40.696C59.7343 40.7151 59.7152 40.7247 59.7056 40.7438C59.677 40.7725 59.6483 40.8012 59.6196 40.8394C59.5623 40.9063 59.4954 40.9636 59.4285 41.0114C59.4094 41.021 59.3902 41.0401 59.3807 41.0496C59.4189 41.021 59.4571 40.9732 59.3807 41.0496C59.352 41.0687 59.3138 41.0974 59.2756 41.1165C59.1991 41.1643 59.1226 41.2025 59.0366 41.2408C58.8359 41.3268 58.7786 41.6326 58.8837 41.8046C59.0175 42.0053 59.2373 42.0531 59.4476 41.9576L59.5049 41.9671Z" fill="#7E2986"/>
<path d="M60.2771 42.9708C61.6533 44.3374 63.0582 45.9239 63.4118 47.9022C63.6985 49.4982 63.1442 51.3523 61.6438 52.1551C61.1755 52.4036 61.596 53.1203 62.0643 52.8719C63.775 51.9639 64.4918 49.9092 64.2624 48.0551C63.9853 45.7805 62.4179 43.9456 60.8601 42.3878C60.4778 42.0055 59.8948 42.598 60.2771 42.9708Z" fill="#7E2986"/>
<path d="M52.3069 52.2415C52.6987 52.834 52.9377 53.5126 52.9854 54.2294C53.0046 54.5734 52.9854 54.927 52.9185 55.2615C52.8516 55.596 52.7178 55.9496 52.6701 56.3033C52.5745 56.9722 52.823 57.689 53.5397 57.8706C54.1896 58.0331 54.8491 57.6986 55.346 57.3163C55.5276 57.1825 55.4894 56.8767 55.346 56.7333C55.174 56.5613 54.9351 56.5995 54.7631 56.7333C54.505 56.934 53.9411 57.2494 53.6258 57.02C53.4251 56.8767 53.4633 56.5804 53.5015 56.3797C53.5589 56.0834 53.664 55.7967 53.7213 55.5005C53.9794 54.2485 53.7309 52.9105 53.0332 51.8401C52.737 51.3909 52.0202 51.8114 52.3164 52.2606L52.3069 52.2415Z" fill="#7E2986"/>
<path d="M47.1563 53.3682C47.185 55.0311 47.4048 56.7992 48.351 58.2232C49.1633 59.4465 50.4535 60.3544 51.954 60.4309C52.4892 60.4595 52.4892 59.6281 51.954 59.5994C50.6924 59.5325 49.6029 58.6819 48.9626 57.6306C48.1885 56.3596 48.0069 54.8304 47.9878 53.3682C47.9878 52.833 47.1468 52.833 47.1563 53.3682Z" fill="#7E2986"/>
<path d="M59.9435 54.5542C60.0104 56.9626 58.3953 59.2945 56.092 60.04C55.5855 60.2024 55.8053 61.0052 56.3118 60.8428C58.9592 59.9922 60.8514 57.3449 60.775 54.5542C60.7559 54.019 59.9244 54.019 59.9435 54.5542Z" fill="#7E2986"/>
<path d="M57.5703 71.2024C57.685 70.9348 57.7519 70.6386 57.7328 70.3423C57.6754 70.3901 57.6181 70.4283 57.5703 70.4761V71.2024Z" fill="#7E2986"/>
<path d="M57.5682 68.7268C57.6446 68.6982 57.7211 68.6599 57.788 68.6217C57.8835 68.5739 57.9887 68.5261 58.0842 68.4879V66.0986C57.9122 66.4045 57.7402 66.7007 57.5586 67.0066V68.7268H57.5682Z" fill="#7E2986"/>
<path d="M56.1669 61.1867H50.9678C49.907 61.1867 49.0469 62.0468 49.0469 63.1076V65.9556C49.0469 65.9556 49.0564 66.013 49.0469 66.0416C49.0469 66.0608 49.066 66.0799 49.0564 66.1085V66.1563V66.1754C49.0564 66.1754 49.0564 66.1754 49.0564 66.185C49.0564 66.185 49.0564 66.185 49.0564 66.1946C49.0564 66.2232 49.0755 66.2423 49.0851 66.2615C49.0851 66.271 49.0851 66.2806 49.0947 66.2901C49.1138 66.3092 49.1329 66.3188 49.1424 66.3379C49.1711 66.3379 49.1998 66.357 49.2285 66.357C49.2571 66.357 49.2858 66.357 49.3145 66.357C49.3336 66.357 49.3527 66.357 49.3623 66.357C49.3623 66.357 49.3718 66.3475 49.3814 66.3379C49.41 66.3188 49.4387 66.2997 49.4769 66.2806C49.4769 66.271 49.4865 66.2615 49.4961 66.2519C49.4961 66.2423 49.5056 66.2328 49.5152 66.2232C49.5152 66.2232 49.5152 66.2137 49.5152 66.2041V66.185V63.0694C49.5152 62.2953 50.1459 61.6645 50.9201 61.6645H56.1191C56.8932 61.6645 57.524 62.2953 57.524 63.0694V64.0729C57.6769 63.9391 57.8585 63.8053 58.0496 63.7288V63.0694C58.0496 62.0086 57.1895 61.1484 56.1286 61.1484L56.1669 61.1867Z" fill="#7E2986"/>
<path d="M50.0406 70.9738C50.8816 69.5402 50.939 67.7817 50.2126 66.2908C50.0789 66.0041 49.6392 66.0328 49.4959 66.2908C48.0528 68.8617 47.3169 71.7957 47.3742 74.7393C47.3838 75.2745 48.2152 75.2745 48.2057 74.7393C48.1579 71.9391 48.846 69.158 50.2126 66.7114H49.4959C50.0884 67.9347 50.012 69.3873 49.3238 70.5533C49.0562 71.012 49.773 71.4325 50.0406 70.9738Z" fill="#7E2986"/>
<path d="M56.9576 68.9184C57.359 68.2207 57.7508 67.523 58.1522 66.8254C58.4771 66.252 58.8594 65.6785 59.127 65.0764C59.3277 64.6177 59.4615 64.0061 59.0888 63.5951C58.6683 63.1268 58.0184 63.2606 57.5501 63.5951C56.9767 63.9965 56.4893 64.5317 55.9732 65C55.3615 65.5543 54.7499 66.1182 54.1382 66.6725C52.9532 67.7524 51.7681 68.8324 50.583 69.9123C50.1912 70.2755 50.7741 70.8585 51.166 70.4953C53.1156 68.7177 55.0748 66.9496 57.0245 65.172C57.2538 64.9618 57.4832 64.7515 57.7126 64.5412C57.8655 64.4075 58.1617 64.073 58.3911 64.1303C58.7352 64.2259 58.2478 64.9904 58.1426 65.1625C57.5119 66.2711 56.8715 67.3797 56.2408 68.4979C55.9732 68.9662 56.69 69.3867 56.9576 68.9184Z" fill="#7E2986"/>
<path d="M56.5778 69.3197C57.1704 69.3866 57.6864 69.1286 58.2025 68.8897C58.4701 68.7654 59.3972 68.3927 59.4927 68.9661C59.5405 69.2528 59.1104 69.616 58.948 69.8167C58.7186 70.113 58.5275 70.4761 58.623 70.868C58.7282 71.3363 59.2634 71.5656 59.3111 72.0435C59.3589 72.6074 58.9193 73.0661 58.5179 73.391C57.696 74.0409 56.6734 74.5475 56.4631 75.6752C56.358 76.2008 57.1608 76.4206 57.2659 75.895C57.5049 74.643 59.1104 74.2607 59.7699 73.2859C60.0757 72.8463 60.2286 72.2538 60.1044 71.7281C60.047 71.4796 59.9228 71.2694 59.7508 71.0782C59.6074 70.9158 59.3876 70.7915 59.4641 70.5526C59.5979 70.1799 60.0088 69.9123 60.1904 69.5491C60.4006 69.1095 60.3529 68.603 60.0088 68.2494C59.6074 67.848 59.0244 67.7715 58.4892 67.9053C57.8394 68.0678 57.2755 68.5839 56.5778 68.4978C56.0522 68.4405 56.0522 69.272 56.5778 69.3293V69.3197Z" fill="#7E2986"/>
<path d="M54.9299 72.9712C56.5068 73.3344 58.1984 71.9869 58.1506 70.3526C58.1506 70.1901 58.0551 70.0372 57.8926 69.9703C57.7301 69.9034 57.5772 69.9512 57.4434 70.0563C56.5355 70.7827 55.6085 71.4995 54.7005 72.2162C54.5285 72.3596 54.5572 72.6559 54.7005 72.7992C54.8726 72.9712 55.1115 72.9426 55.2835 72.7992C56.201 72.0824 57.1185 71.3657 58.0264 70.6393L57.3192 70.3431C57.3192 70.5437 57.3192 70.6584 57.2618 70.84C57.2045 71.0216 57.1854 71.0789 57.0898 71.2319C57.0516 71.2892 57.0133 71.3561 56.9751 71.4134C56.9464 71.4517 57.0038 71.3848 56.956 71.4326C56.9273 71.4612 56.9082 71.4899 56.8795 71.5186C56.8318 71.5759 56.7744 71.6333 56.7171 71.681C56.6884 71.7002 56.6693 71.7288 56.6406 71.7479C56.6311 71.7479 56.5451 71.8244 56.5737 71.8053C56.612 71.7766 56.5259 71.834 56.5164 71.8435C56.4877 71.8626 56.4495 71.8913 56.4208 71.9104C56.3635 71.9486 56.2966 71.9869 56.2297 72.0155C56.1914 72.0346 56.1628 72.0538 56.1245 72.0633C56.0863 72.0824 56.1723 72.0442 56.0959 72.0729C56.0194 72.1015 55.9525 72.1207 55.8761 72.1398C55.8092 72.1589 55.7423 72.1684 55.6658 72.1876C55.6371 72.1876 55.6371 72.1876 55.6849 72.1876C55.6658 72.1876 55.6467 72.1876 55.6276 72.1876C55.5989 72.1876 55.5607 72.1876 55.532 72.1876C55.4555 72.1876 55.3791 72.1876 55.3026 72.1876C55.2166 72.1876 55.36 72.2067 55.2549 72.1876C55.2166 72.1876 55.1784 72.1684 55.1402 72.1684C54.9299 72.1207 54.6814 72.2353 54.6336 72.4552C54.5859 72.6654 54.7005 72.9139 54.9204 72.9617L54.9299 72.9712Z" fill="#7E2986"/>
<path d="M45.9055 61.5397C40.5439 63.9958 37.6577 70.2079 37.543 75.8753C37.5335 76.5347 38.5561 76.5347 38.5656 75.8753C38.6803 70.5424 41.3754 64.7317 46.4215 62.4189C47.0236 62.1418 46.498 61.2625 45.9055 61.5397Z" fill="#7E2986"/>
<path d="M61.5012 62.9538C65.391 66.4517 67.7229 71.3736 68.6021 76.4866C68.7168 77.1365 69.7012 76.8593 69.5865 76.219C68.6881 70.953 66.232 65.84 62.2276 62.237C61.7402 61.7974 61.0138 62.5142 61.5012 62.9634V62.9538Z" fill="#7E2986"/>
<path d="M64.2533 53.6768C64.2533 55.5658 64.2533 57.4548 64.2533 59.3438C64.2533 60.0572 64.0934 60.7009 63.81 61.3526C63.7516 61.487 63.7097 61.6452 63.6249 61.7678C63.536 61.8962 63.4453 62.0749 63.4453 61.8576" stroke="#7E2986" stroke-width="0.755807" stroke-linecap="round"/>
</g>
<path d="M50.7969 29.501C51.1808 30.4526 51.7762 31.3206 52.5274 32.0217C53.4956 29.9573 54.7253 28.0154 56.1665 26.2515" stroke="#7E2986" stroke-width="1.26057" stroke-linecap="round" stroke-linejoin="round"/>
<path d="M53.4814 35.5882C56.9509 35.5882 59.7635 32.7756 59.7635 29.3061C59.7635 25.8365 56.9509 23.0239 53.4814 23.0239C50.0118 23.0239 47.1992 25.8365 47.1992 29.3061C47.1992 32.7756 50.0118 35.5882 53.4814 35.5882Z" stroke="#7E2986" stroke-width="0.70542" stroke-miterlimit="10"/>
<g clip-path="url(#clip2_3164_12630)">
<path d="M98.1363 65.873H101.844C104.1 65.873 105.916 67.6411 105.916 69.8201V89.6032C105.916 91.7822 104.09 93.5503 101.844 93.5503H70.2393C67.9838 93.5503 66.168 91.7822 66.168 89.6032V69.8201C66.168 67.6411 67.9934 65.873 70.2393 65.873H74.6451" fill="white"/>
<path d="M98.1356 66.3501C99.6647 66.3501 101.528 66.0634 103.01 66.5317C104.978 67.1624 105.447 68.9496 105.447 70.7559V81.5936C105.447 84.2504 105.571 86.9455 105.447 89.5928C105.256 93.5303 101.213 93.062 98.451 93.062H71.4045C70.3915 93.062 69.3976 93.1289 68.4705 92.6128C66.8458 91.7145 66.6451 90.1758 66.6451 88.5415V72.027C66.6451 71.119 66.5496 70.1442 66.7025 69.2459C67.2186 66.2354 70.2195 66.3501 72.5705 66.3501H74.6539C75.2656 66.3501 75.2656 65.3944 74.6539 65.3944C73.0388 65.3944 71.3568 65.251 69.7416 65.423C67.3906 65.6811 65.7468 67.5925 65.6799 69.9149C65.5939 73.2885 65.6799 76.6812 65.6799 80.0644C65.6799 83.2278 65.5652 86.4199 65.6799 89.5833C65.7659 92.1159 67.7346 93.9413 70.2386 94.0177C70.9267 94.0368 71.6148 94.0177 72.2934 94.0177H100.945C102.092 94.0177 103.201 93.9795 104.223 93.3583C107.186 91.5807 106.393 87.3087 106.393 84.3938V71.6447C106.393 70.4883 106.517 69.2363 106.058 68.1468C105.074 65.7862 102.828 65.3848 100.554 65.3848H98.1261C97.5144 65.3848 97.5144 66.3405 98.1261 66.3405L98.1356 66.3501Z" fill="#7E2986"/>
<g clip-path="url(#clip3_3164_12630)">
<path d="M87.146 58.5221C87.7186 60.7369 88.8449 62.7711 90.4029 64.4156C90.8253 64.8624 91.4823 64.1875 91.0693 63.7407C89.6239 62.2008 88.5821 60.3187 88.0564 58.2654C87.9063 57.6761 86.9958 57.9232 87.1554 58.5221H87.146Z" fill="#7E2986"/>
<path d="M82.5849 75.5872C84.8054 76.1374 87.1305 76.1147 89.3182 75.5268C89.9121 75.3679 89.6311 74.4689 89.0417 74.6195C86.9995 75.1581 84.8484 75.1789 82.7924 74.6643C82.2026 74.5159 81.9868 75.4343 82.5894 75.5789L82.5849 75.5872Z" fill="#7E2986"/>
<path d="M79.0915 57.3623C80.49 55.946 81.9542 54.4346 83.8877 53.7977C85.5396 53.2559 87.5857 53.4935 88.6275 55.062C88.9654 55.5658 89.782 55.0905 89.4347 54.5867C88.2709 52.8376 86.1027 52.2768 84.1411 52.7426C81.8134 53.2939 80.0582 55.043 78.4251 56.6969C78.0027 57.1342 78.6597 57.7996 79.0915 57.3718V57.3623Z" fill="#7E2986"/>
<path d="M89.7357 54.1976C91.3219 55.1957 92.9926 56.3839 93.7716 58.171C94.4192 59.6443 94.3066 61.5645 93.0583 62.6766C92.5984 63.0759 93.2648 63.7508 93.7247 63.3515C95.1889 62.0493 95.4047 59.8059 94.729 58.0379C93.9218 55.9276 92.0352 54.5208 90.205 53.3706C89.6887 53.0474 89.2194 53.8649 89.7357 54.1881V54.1976Z" fill="#7E2986"/>
<path d="M84.7839 63.3517C84.6712 64.0361 84.568 64.73 84.5023 65.4239C84.4366 66.0513 84.2864 66.8022 84.7088 67.325C85.103 67.8193 85.8632 67.9334 86.4452 67.9999C87.0271 68.0665 87.7216 67.9809 87.8906 67.3345C88.0501 66.7452 87.1397 66.4885 86.9895 67.0779C86.9895 67.0779 87.0271 67.0209 87.0365 67.0304C87.0552 67.0399 86.9802 67.0589 87.0365 67.0399C86.952 67.0779 86.9051 67.0779 86.8488 67.0779C86.6329 67.0779 86.417 67.0589 86.2011 67.0114C85.9289 66.9543 85.4221 66.8973 85.3658 66.5836C85.3282 66.365 85.3658 66.1083 85.3939 65.8992C85.4127 65.652 85.4409 65.4049 85.469 65.1578C85.5253 64.6444 85.6004 64.1216 85.6943 63.6178C85.7412 63.3612 85.6286 63.1045 85.3658 63.0285C85.1405 62.962 84.8308 63.1045 84.7839 63.3612V63.3517Z" fill="#7E2986"/>
<path d="M85.2322 68.7314C85.3917 68.7029 85.5513 68.6649 85.7108 68.6934C85.8892 68.7124 86.0581 68.8075 86.2271 68.8645C86.5462 68.9691 86.9028 68.9786 87.2126 69.1212C87.3064 69.1592 87.4191 69.2257 87.4848 69.3208C87.5035 69.3493 87.5129 69.3778 87.5317 69.4063C87.5505 69.4539 87.5317 69.4539 87.5505 69.4253C87.5223 69.4634 87.3534 69.4348 87.2783 69.4253C87.0906 69.4063 86.9028 69.3683 86.7057 69.3683C86.3866 69.3683 86.0863 69.4824 85.7672 69.5204C85.6076 69.5394 85.6733 69.5204 85.5137 69.4063C85.326 69.2732 85.1101 69.2542 84.8943 69.3208C84.5658 69.4253 84.2748 69.5204 83.9275 69.4729C83.9087 69.4729 83.8618 69.4539 83.843 69.4539C83.7961 69.4634 83.843 69.4729 83.8712 69.4824C83.9087 69.4824 83.8806 69.5489 83.8712 69.4729C83.8712 69.3778 83.8712 69.3113 83.9087 69.1972C83.9087 69.1972 83.9557 69.1021 83.9369 69.1307C83.9087 69.1687 83.9369 69.1307 83.9463 69.1212C83.8994 69.1592 83.9745 69.1021 83.9932 69.0926C84.1059 69.0261 84.1997 68.9976 84.3311 68.9501C84.6221 68.8645 84.9318 68.8075 85.2322 68.7409C85.4762 68.6934 85.6264 68.3892 85.5607 68.1516C85.4856 67.8949 85.2322 67.7714 84.9787 67.8189C84.3217 67.952 83.3831 68.047 83.064 68.7504C82.8951 69.1402 82.8481 69.644 83.0828 70.0147C83.355 70.4424 83.9463 70.471 84.4062 70.4139C84.5376 70.3949 84.669 70.3759 84.8004 70.3474C84.838 70.3379 85.1101 70.2808 85.1289 70.2333C85.082 70.3569 84.913 70.1097 85.0257 70.2333C85.0726 70.2808 85.1383 70.3189 85.1946 70.3474C85.326 70.4234 85.4762 70.4519 85.6264 70.4615C86.0487 70.4805 86.4523 70.2808 86.8841 70.3189C87.3628 70.3569 87.8414 70.4615 88.2169 70.0622C88.5923 69.663 88.4797 69.0166 88.1324 68.6364C87.7476 68.2086 87.2126 68.1326 86.687 68.009C86.4429 67.952 86.2177 67.8284 85.9643 67.7809C85.6264 67.7143 85.2979 67.7523 84.96 67.8189C84.7159 67.8664 84.5658 68.1706 84.6315 68.4082C84.7065 68.6744 84.96 68.7885 85.2134 68.7409L85.2322 68.7314Z" fill="#7E2986"/>
<path d="M77.7224 57.3056C77.2531 57.8665 76.7651 58.4178 76.3239 59.0071C75.9485 59.5204 75.7514 60.0908 75.9297 60.7276C76.1081 61.3645 76.5492 61.8968 76.9434 62.4006C77.4127 63.009 77.9102 63.5793 78.4358 64.1307C78.6047 64.3113 78.9332 64.3208 79.1022 64.1307C80.1065 62.99 81.1858 61.9349 82.3497 60.9558C82.941 60.4615 83.5605 59.9862 84.1893 59.5394C84.8182 59.0927 85.4658 58.5794 86.2354 58.4938C86.8267 58.4273 86.8361 57.4767 86.2354 57.5433C84.6586 57.7239 83.2883 58.9786 82.0963 59.9482C80.7822 61.0128 79.5715 62.182 78.4452 63.4558H79.1115C78.3513 62.6668 77.5066 61.7923 76.9997 60.8132C76.7088 60.2619 76.8589 59.8626 77.225 59.4064C77.6098 58.9216 78.0134 58.4558 78.4076 57.9805C78.8018 57.5052 78.1354 56.8398 77.7412 57.3056H77.7224Z" fill="#7E2986"/>
<path d="M89.625 86.8398C89.7286 86.5982 89.789 86.3306 89.7717 86.063C89.7199 86.1061 89.6682 86.1407 89.625 86.1838V86.8398Z" fill="#7E2986"/>
<path d="M89.6258 84.6042C89.6949 84.5783 89.7639 84.5438 89.8243 84.5092C89.9107 84.4661 90.0056 84.4229 90.0919 84.3884V82.2305C89.9366 82.5067 89.7812 82.7743 89.6172 83.0505V84.6042H89.6258Z" fill="#7E2986"/>
<path d="M88.3603 77.7938H83.6647C82.7065 77.7938 81.9297 78.5707 81.9297 79.5288V82.101C81.9297 82.101 81.9383 82.1528 81.9297 82.1787C81.9297 82.196 81.947 82.2132 81.9383 82.2391V82.2823V82.2996C81.9383 82.2996 81.9383 82.2996 81.9383 82.3082C81.9383 82.3082 81.9383 82.3082 81.9383 82.3168C81.9383 82.3427 81.9556 82.36 81.9642 82.3773C81.9642 82.3859 81.9642 82.3945 81.9728 82.4031C81.9901 82.4204 82.0074 82.429 82.016 82.4463C82.0419 82.4463 82.0678 82.4636 82.0937 82.4636C82.1196 82.4636 82.1455 82.4636 82.1714 82.4636C82.1886 82.4636 82.2059 82.4636 82.2145 82.4636C82.2145 82.4636 82.2232 82.4549 82.2318 82.4463C82.2577 82.429 82.2836 82.4118 82.3181 82.3945C82.3181 82.3859 82.3267 82.3773 82.3354 82.3686C82.3354 82.36 82.344 82.3514 82.3526 82.3427C82.3526 82.3427 82.3526 82.3341 82.3526 82.3255V82.3082V79.4943C82.3526 78.7951 82.9223 78.2254 83.6215 78.2254H88.3172C89.0163 78.2254 89.586 78.7951 89.586 79.4943V80.4006C89.7241 80.2797 89.8881 80.1589 90.0608 80.0898V79.4943C90.0608 78.5361 89.2839 77.7593 88.3258 77.7593L88.3603 77.7938Z" fill="#7E2986"/>
<path d="M82.8251 86.6329C83.5847 85.3382 83.6365 83.7499 82.9805 82.4034C82.8597 82.1444 82.4626 82.1703 82.3331 82.4034C81.0297 84.7253 80.3651 87.3753 80.4169 90.0338C80.4255 90.5172 81.1765 90.5172 81.1678 90.0338C81.1247 87.5047 81.7462 84.9929 82.9805 82.7832H82.3331C82.8683 83.888 82.7992 85.2001 82.1777 86.2531C81.9361 86.6675 82.5834 87.0473 82.8251 86.6329Z" fill="#7E2986"/>
<path d="M89.0778 84.7769C89.4403 84.1468 89.7942 83.5167 90.1568 82.8866C90.4502 82.3687 90.7955 81.8508 91.0372 81.307C91.2185 80.8927 91.3393 80.3402 91.0027 79.9691C90.6229 79.5461 90.0359 79.667 89.613 79.9691C89.0951 80.3316 88.6548 80.815 88.1887 81.2379C87.6363 81.7386 87.0839 82.2479 86.5314 82.7485C85.4611 83.7239 84.3908 84.6993 83.3204 85.6746C82.9665 86.0027 83.4931 86.5292 83.847 86.2012C85.6078 84.5957 87.3773 82.9988 89.1382 81.3933C89.3454 81.2034 89.5525 81.0135 89.7597 80.8236C89.8978 80.7028 90.1654 80.4007 90.3726 80.4525C90.6833 80.5388 90.2431 81.2293 90.1481 81.3847C89.5784 82.386 89.0001 83.3872 88.4304 84.3972C88.1887 84.8201 88.8361 85.1999 89.0778 84.7769Z" fill="#7E2986"/>
<path d="M88.7311 85.1398C89.2662 85.2002 89.7323 84.9672 90.1985 84.7514C90.4401 84.6392 91.2774 84.3025 91.3637 84.8205C91.4069 85.0794 91.0185 85.4074 90.8717 85.5887C90.6646 85.8563 90.4919 86.1843 90.5783 86.5382C90.6732 86.9611 91.1566 87.1683 91.1997 87.5999C91.2429 88.1091 90.8458 88.5235 90.4833 88.8169C89.741 89.4039 88.8174 89.8614 88.6275 90.8799C88.5325 91.3547 89.2576 91.5532 89.3525 91.0785C89.5683 89.9477 91.0185 89.6024 91.6141 88.722C91.8903 88.3249 92.0284 87.7898 91.9162 87.315C91.8644 87.0906 91.7522 86.9007 91.5968 86.7281C91.4673 86.5813 91.2688 86.4691 91.3378 86.2533C91.4587 85.9167 91.8299 85.675 91.9939 85.347C92.1838 84.9499 92.1406 84.4924 91.8299 84.1731C91.4673 83.8105 90.9408 83.7415 90.4574 83.8623C89.8704 84.0091 89.3612 84.4752 88.7311 84.3975C88.2563 84.3457 88.2563 85.0967 88.7311 85.1485V85.1398Z" fill="#7E2986"/>
<path d="M87.2478 88.4365C88.672 88.7645 90.1998 87.5474 90.1567 86.0714C90.1567 85.9247 90.0704 85.7865 89.9236 85.7261C89.7769 85.6657 89.6388 85.7089 89.5179 85.8038C88.6979 86.4598 87.8606 87.1072 87.0406 87.7546C86.8853 87.8841 86.9112 88.1516 87.0406 88.2811C87.196 88.4365 87.4118 88.4106 87.5672 88.2811C88.3958 87.6337 89.2245 86.9864 90.0445 86.3303L89.4057 86.0628C89.4057 86.244 89.4057 86.3476 89.3539 86.5116C89.3021 86.6756 89.2849 86.7274 89.1986 86.8655C89.164 86.9173 89.1295 86.9777 89.095 87.0295C89.0691 87.064 89.1209 87.0036 89.0777 87.0468C89.0518 87.0727 89.0346 87.0986 89.0087 87.1245C88.9655 87.1763 88.9137 87.228 88.8619 87.2712C88.836 87.2885 88.8188 87.3144 88.7929 87.3316C88.7842 87.3316 88.7066 87.4007 88.7324 87.3834C88.767 87.3575 88.6893 87.4093 88.6807 87.4179C88.6548 87.4352 88.6202 87.4611 88.5943 87.4784C88.5426 87.5129 88.4821 87.5474 88.4217 87.5733C88.3872 87.5906 88.3613 87.6078 88.3268 87.6165C88.2922 87.6337 88.3699 87.5992 88.3009 87.6251C88.2318 87.651 88.1714 87.6683 88.1023 87.6855C88.0419 87.7028 87.9815 87.7114 87.9124 87.7287C87.8865 87.7287 87.8865 87.7287 87.9297 87.7287C87.9124 87.7287 87.8952 87.7287 87.8779 87.7287C87.852 87.7287 87.8175 87.7287 87.7916 87.7287C87.7225 87.7287 87.6535 87.7287 87.5844 87.7287C87.5067 87.7287 87.6362 87.746 87.5413 87.7287C87.5067 87.7287 87.4722 87.7114 87.4377 87.7114C87.2478 87.6683 87.0234 87.7718 86.9802 87.9704C86.9371 88.1603 87.0406 88.3847 87.2392 88.4279L87.2478 88.4365Z" fill="#7E2986"/>
<path d="M81.1852 75.243C80.2748 75.6993 79.5615 76.4502 79.1485 77.4008L79.4301 77.1822C74.9061 79.0167 71.4615 83.1707 70.5604 88.0376C70.4478 88.6364 71.3582 88.8931 71.4615 88.2942C71.9683 85.5471 73.3011 83.0281 75.2534 81.0605C76.2013 80.1004 77.2901 79.2924 78.4727 78.6555C78.9983 78.3799 79.7304 78.2468 80.0214 77.705C80.4156 76.973 80.8943 76.4407 81.6451 76.0605C82.1895 75.7848 81.7108 74.9673 81.1758 75.243H81.1852Z" fill="#7E2986"/>
<path d="M90.0458 76.2409C90.8812 76.3264 91.4913 77.0583 91.4913 77.8948C91.4913 78.1705 91.7071 78.3511 91.9606 78.3701C97.5639 78.8834 99.7602 85.0336 100.84 89.7484C100.98 90.3472 101.881 90.0906 101.741 89.4917C101.074 86.602 100.23 83.6362 98.4087 81.2503C96.8224 79.1686 94.5698 77.6477 91.9512 77.4101L92.4205 77.8853C92.4205 76.4975 91.3786 75.4139 90.0365 75.2808C89.4358 75.2238 89.4358 76.1743 90.0365 76.2314L90.0458 76.2409Z" fill="#7E2986"/>
<path d="M78.4104 65.5664C78.448 66.6786 78.4855 67.8002 78.5231 68.9124C78.5512 69.8915 78.5794 70.9466 79.1144 71.8021C79.6212 72.6196 80.3627 72.9238 81.2731 73.0283C82.3431 73.1519 83.4225 73.266 84.5019 73.3705C85.1026 73.4276 85.1026 72.477 84.5019 72.42C83.5821 72.3344 82.6622 72.2394 81.7518 72.1348C81.3576 72.0873 80.9071 72.0778 80.541 71.9067C80.2219 71.7546 79.9873 71.4599 79.8277 71.1462C79.4241 70.3667 79.4804 69.4067 79.4523 68.5607L79.349 65.5759C79.3303 64.9675 78.3917 64.9675 78.4104 65.5759V65.5664Z" fill="#7E2986"/>
<path d="M92.2919 64.9575C92.245 65.6514 92.2919 66.3263 92.4045 67.0107C92.4327 67.2008 92.6673 67.3814 92.855 67.3624C93.3337 67.3149 93.9157 67.2293 94.3286 67.5525C94.7416 67.8757 94.6102 68.446 94.4976 68.8928C94.3849 69.3396 94.1972 69.6057 93.7843 69.7768C93.437 69.9194 93.0615 70.005 92.7424 70.2141C92.4233 70.4232 92.1793 70.7464 92.076 71.1361C91.9634 71.5829 92.0479 72.0487 91.5223 72.1723C91.0623 72.2768 90.5555 72.2578 90.0862 72.2958C89.4855 72.3338 88.8754 72.3719 88.2747 72.4194C87.674 72.4669 87.674 73.408 88.2747 73.37C89.0256 73.3224 89.7859 73.2654 90.5367 73.2179C91.0717 73.1799 91.6724 73.2084 92.1699 72.9517C92.7612 72.6475 92.8363 72.1152 92.9583 71.5164C93.0615 70.9936 93.4557 70.908 93.8969 70.7464C94.3662 70.5753 94.7979 70.3567 95.0795 69.9194C95.3986 69.4251 95.5676 68.6742 95.5488 68.0848C95.53 67.4955 95.2391 67.0012 94.7604 66.697C94.1878 66.3263 93.5027 66.3453 92.855 66.4023L93.3056 66.754C93.2023 66.1552 93.1836 65.5563 93.2211 64.948C93.2586 64.3396 92.3201 64.3396 92.2825 64.948L92.2919 64.9575Z" fill="#7E2986"/>
</g>
</g>
<path d="M83.6289 43.1851C84.0128 44.1366 84.6082 45.0047 85.3594 45.7058C86.3276 43.6414 87.5573 41.6994 88.9985 39.9355" stroke="#7E2986" stroke-width="1.26057" stroke-linecap="round" stroke-linejoin="round"/>
<path d="M86.3134 49.2728C89.7829 49.2728 92.5956 46.4602 92.5956 42.9906C92.5956 39.5211 89.7829 36.7085 86.3134 36.7085C82.8439 36.7085 80.0312 39.5211 80.0312 42.9906C80.0312 46.4602 82.8439 49.2728 86.3134 49.2728Z" stroke="#7E2986" stroke-width="0.70542" stroke-miterlimit="10"/>
<defs>
<clipPath id="clip0_3164_12630">
<rect width="40.8659" height="42.0032" fill="white" transform="translate(0.5 20.2881)"/>
</clipPath>
<clipPath id="clip1_3164_12630">
<rect width="40.8659" height="42.0032" fill="white" transform="translate(32.793 38.3257)"/>
</clipPath>
<clipPath id="clip2_3164_12630">
<rect width="40.8659" height="42.0032" fill="white" transform="translate(65.6328 52.0342)"/>
</clipPath>
<clipPath id="clip3_3164_12630">
<rect width="31.1987" height="40.5035" fill="white" transform="translate(70.5586 52.5815)"/>
</clipPath>
</defs>
</svg>
