<svg width="101" height="100" viewBox="0 0 101 100" fill="none" xmlns="http://www.w3.org/2000/svg">
<path d="M25.5795 32.9635C24.609 29.9931 24.5061 26.5816 26.0942 23.9054C26.8588 22.5966 27.9911 21.5232 28.6675 20.1704C29.1822 19.1263 29.4174 17.9647 29.9174 16.9059C30.4909 15.7148 31.3879 14.7149 32.2849 13.7297C32.7554 13.215 33.2407 12.6857 33.8436 12.3474C34.3435 12.0681 34.9023 11.9357 35.4464 11.8034C37.1816 11.3769 38.9167 10.9505 40.6519 10.5241C42.4311 10.0829 44.2398 9.64177 46.0485 9.83293C47.8572 10.0241 49.71 10.9505 50.4893 12.5974C51.1658 11.9357 51.8863 11.2446 52.7833 10.9505C53.6803 10.6564 54.8419 10.9064 55.2831 11.7593C55.4742 12.1269 55.5037 12.5386 55.6066 12.9356C56.0771 14.5679 57.7682 15.4943 58.9005 16.7589C60.3562 18.3911 60.9003 20.6556 61.0326 22.8319C61.165 25.0082 60.9591 27.2139 61.1356 29.3902C61.2238 30.449 61.415 31.5224 61.2238 32.5812C61.062 33.434 60.665 34.2134 60.2533 34.9633C58.4593 38.2131 56.2536 41.2422 53.7097 43.9332C53.6214 43.6244 53.5332 43.3009 53.4597 42.9921C52.4451 45.2272 50.3423 46.7271 48.4895 48.3446C46.5485 50.0357 44.8133 51.962 42.7694 53.5207C40.7254 55.0794 38.2697 56.2852 35.6964 56.2411C35.2111 56.2411 34.7259 56.1676 34.2994 55.9617C33.7553 55.697 33.3583 55.2265 32.9907 54.7412C31.579 52.8296 30.7115 50.5062 30.5056 48.1388C30.388 46.6977 30.5056 45.2272 30.1674 43.8156C29.7704 42.1392 29.2263 40.1247 28.4616 38.5807C27.5205 36.6544 26.2265 35.0663 25.5501 32.9782L25.5795 32.9635Z" fill="white"/>
<path d="M44.1176 18.905C41.3678 22.5812 37.6769 25.478 33.486 27.3455L34.2654 27.4484C34.2654 27.4484 34.2654 27.5367 34.3242 27.5219C34.9712 27.022 34.0595 26.1103 33.4272 26.625C32.8684 27.0661 32.8978 27.8749 33.3684 28.3601C33.589 28.5807 33.8831 28.5807 34.1477 28.463C38.5445 26.5073 42.353 23.4046 45.2351 19.552C45.7351 18.8903 44.6175 18.258 44.1323 18.905H44.1176Z" fill="#7E2986"/>
<path d="M45.7956 20.2137C46.6779 23.6252 48.4424 26.7573 50.8687 29.3012C51.4422 29.9041 52.3392 28.9924 51.7657 28.4042C49.4865 26.0221 47.8542 23.0811 47.0161 19.8902C46.8102 19.0961 45.575 19.4343 45.7809 20.2284L45.7956 20.2137Z" fill="#7E2986"/>
<path d="M33.0042 18.3755C35.2099 16.1698 37.5186 13.817 40.5625 12.8318C43.2093 11.9789 46.4444 12.376 48.0913 14.8317C48.5471 15.5081 49.65 14.8758 49.1942 14.1847C47.3855 11.5231 44.0475 10.6702 41.0036 11.376C37.3862 12.2289 34.6365 14.9199 32.0925 17.4638C31.5044 18.052 32.416 18.949 32.9895 18.3608L33.0042 18.3755Z" fill="#7E2986"/>
<path d="M52.2189 15.3919C52.8218 15.1125 53.3218 14.6566 53.7188 14.1272C54.1158 13.5979 54.3364 12.9509 54.4099 12.2744C54.4246 12.1274 54.3217 11.9215 54.2188 11.8186C54.1011 11.701 53.9247 11.6274 53.7629 11.6274C53.6012 11.6274 53.4247 11.6863 53.3071 11.8186C53.1894 11.9509 53.1453 12.098 53.1159 12.2744C53.1453 12.0539 53.1159 12.2892 53.1012 12.348C53.1012 12.4068 53.0718 12.4656 53.0571 12.5244C53.0424 12.598 53.013 12.6568 52.9983 12.7156C52.9836 12.7744 52.9395 12.8332 52.9395 12.892C52.9395 12.8479 52.9983 12.7597 52.9395 12.8626C52.9395 12.892 52.91 12.9215 52.8953 12.9509C52.8659 13.0097 52.8365 13.0685 52.7924 13.1273C52.7336 13.245 52.6601 13.3479 52.5718 13.4655C52.513 13.5538 52.6454 13.3773 52.5865 13.4361C52.5718 13.4655 52.5424 13.4802 52.5277 13.5096C52.4836 13.5538 52.4395 13.5979 52.3954 13.6567C52.3072 13.7596 52.2042 13.8479 52.1013 13.9214C52.0719 13.9361 52.0425 13.9655 52.0278 13.9802C52.0866 13.9361 52.1454 13.8626 52.0278 13.9802C51.9836 14.0096 51.9248 14.0537 51.866 14.0831C51.7484 14.1567 51.6307 14.2155 51.4984 14.2743C51.1896 14.4066 51.1014 14.8772 51.2631 15.1419C51.469 15.4507 51.8072 15.5242 52.1307 15.3771L52.2189 15.3919Z" fill="#7E2986"/>
<path d="M53.4107 16.9344C55.5282 19.0371 57.6898 21.4781 58.2339 24.522C58.675 26.9777 57.8222 29.8304 55.5135 31.0656C54.793 31.4479 55.44 32.5508 56.1605 32.1685C58.7927 30.7715 59.8955 27.61 59.5426 24.7573C59.1162 21.2575 56.7046 18.4342 54.3077 16.0374C53.7195 15.4492 52.8225 16.3609 53.4107 16.9344Z" fill="#7E2986"/>
<path d="M31.2677 21.1104C30.7384 22.5221 29.6061 23.5661 28.6944 24.7131C27.7827 25.86 27.0622 27.2129 26.9887 28.7716C26.8269 31.8302 29.0767 34.5505 32.0765 35.0358C32.8853 35.1681 33.2235 33.9329 32.4147 33.8006C29.6355 33.3447 27.6945 30.6685 28.4003 27.8599C28.7238 26.5806 29.5914 25.5953 30.4296 24.6101C31.2677 23.6249 32.0618 22.6397 32.5177 21.4192C32.8117 20.6546 31.5765 20.3163 31.2825 21.081L31.2677 21.1104Z" fill="#7E2986"/>
<path d="M33.2228 32.9335C33.2669 35.4921 33.6051 38.2125 35.0609 40.4035C36.3108 42.2857 38.2959 43.6827 40.6046 43.8003C41.428 43.8444 41.428 42.5651 40.6046 42.521C38.6635 42.4181 36.9872 41.1094 36.002 39.4918C34.8109 37.5361 34.5315 35.1833 34.5021 32.9335C34.5021 32.1101 33.2081 32.1101 33.2228 32.9335Z" fill="#7E2986"/>
<path d="M52.8955 34.7568C52.9984 38.4624 50.5133 42.0503 46.9695 43.1973C46.1901 43.4473 46.5283 44.6825 47.3077 44.4325C51.3809 43.1238 54.2924 39.0505 54.1748 34.7568C54.1454 33.9333 52.8661 33.9333 52.8955 34.7568Z" fill="#7E2986"/>
<path d="M31.9683 46.1749C23.719 49.954 19.2781 59.5121 19.1017 68.232C19.087 69.2466 20.6604 69.2466 20.6751 68.232C20.8515 60.0267 24.9983 51.0862 32.7624 47.5277C33.6888 47.1013 32.88 45.7484 31.9683 46.1749Z" fill="#7E2986"/>
<path d="M55.9671 48.3524C61.9519 53.7343 65.5399 61.3072 66.8927 69.1743C67.0692 70.1742 68.5837 69.7478 68.4073 68.7625C67.025 60.6602 63.2459 52.7932 57.0846 47.2495C56.3347 46.5731 55.2171 47.6759 55.9671 48.3671V48.3524Z" fill="#7E2986"/>
<path d="M38.0508 28.8273C39.4472 28.8273 41.1856 28.5418 41.8234 30.1716C42.24 31.2364 42.0701 32.3053 42.1944 33.4238C42.321 34.5633 42.1367 36.1068 43.0809 36.9651C43.3925 37.2484 45.3851 37.6974 45.249 37.153" stroke="#7E2986" stroke-width="0.771717" stroke-linecap="round"/>
<path d="M8.5 26.7166V12.6441C8.5 8.97598 11.476 6 15.1671 6H29.0782" stroke="#7E2986" stroke-width="2.5558" stroke-linecap="round" stroke-linejoin="round"/>
<path d="M8.5 52.6226V66.6951C8.5 70.3631 11.476 73.3391 15.1671 73.3391H29.0782" stroke="#7E2986" stroke-width="2.5558" stroke-linecap="round" stroke-linejoin="round"/>
<path d="M78.1719 26.7166V12.6441C78.1719 8.97598 75.1959 6 71.5048 6H57.5938" stroke="#7E2986" stroke-width="2.5558" stroke-linecap="round" stroke-linejoin="round"/>
<path d="M78.1719 52.6226V66.6951C78.1719 70.3631 75.1959 73.3391 71.5048 73.3391H57.5938" stroke="#7E2986" stroke-width="2.5558" stroke-linecap="round" stroke-linejoin="round"/>
<path d="M14.5547 81.7271H73.6221" stroke="#7E2A8D" stroke-width="2.5558" stroke-linecap="round"/>
<path d="M14.5547 87.7856H73.6221" stroke="#7E2A8D" stroke-width="2.5558" stroke-linecap="round"/>
<path d="M75.8616 68.5509C75.8616 57.1341 64.8322 60.37 71.1445 69.941C64.8322 60.37 57.3121 69.0522 67.9086 73.6554C57.3121 69.0522 55.6714 80.4235 67.2021 78.5321C55.6714 80.4235 60.4341 90.8832 69.2531 83.0214C60.4341 90.8832 70.119 97.1044 73.4005 85.6876C70.119 97.1044 81.6042 97.1044 78.3227 85.6876C81.6042 97.1044 91.2892 90.906 82.4702 83.0214C91.2892 90.8832 96.0519 80.4235 84.5211 78.5321C96.0519 80.4235 94.4339 69.0522 83.8147 73.6554C94.4112 69.0522 86.8911 60.3472 80.5788 69.941C86.8911 60.37 75.8616 57.1341 75.8616 68.5509Z" fill="#7E2986"/>
<path d="M75.8642 90.1078C83.038 90.1078 88.8534 84.2924 88.8534 77.1186C88.8534 69.9449 83.038 64.1294 75.8642 64.1294C68.6905 64.1294 62.875 69.9449 62.875 77.1186C62.875 84.2924 68.6905 90.1078 75.8642 90.1078Z" fill="#7E2986"/>
<path d="M68.8917 78.4403C69.8032 80.6736 71.1249 82.7017 72.9024 84.3652C73.4949 84.9122 74.6343 84.9122 75.0217 84.0918C77.027 79.8304 79.5337 75.7969 82.519 72.1508C82.9747 71.5811 83.0659 70.7835 82.519 70.2366C82.0404 69.7581 81.0605 69.6669 80.6048 70.2366C77.4828 74.065 74.8166 78.2352 72.6973 82.7245L74.8166 82.451C73.4037 81.1293 72.2415 79.5114 71.5123 77.7111C71.2388 77.0275 70.6236 76.5489 69.8488 76.7768C69.2107 76.9591 68.6182 77.7567 68.9145 78.4403H68.8917Z" fill="#F6F7F7"/>
</svg>
