<svg width="101" height="100" viewBox="0 0 101 100" fill="none" xmlns="http://www.w3.org/2000/svg">
<g clip-path="url(#clip0_3164_12767)">
<path d="M92.3517 11.7739H8.84699C4.90802 11.7739 1.71484 14.8539 1.71484 18.6532V71.9312C1.71484 75.7306 4.90802 78.8105 8.84699 78.8105H92.3517C96.2907 78.8105 99.4838 75.7306 99.4838 71.9312V18.6532C99.4838 14.8539 96.2907 11.7739 92.3517 11.7739Z" fill="white" stroke="#7E2989" stroke-width="1.6875" stroke-linecap="round" stroke-linejoin="round"/>
<path d="M78.7712 80.9912H22.2245C20.2668 80.9912 18.6797 81.6254 18.6797 82.4076V83.2112C18.6797 83.9934 20.2668 84.6276 22.2245 84.6276H78.7712C80.729 84.6276 82.3161 83.9934 82.3161 83.2112V82.4076C82.3161 81.6254 80.729 80.9912 78.7712 80.9912Z" fill="#7E2989"/>
<path d="M45.8756 19.9287H12.6428C11.3019 19.9287 10.2148 20.9772 10.2148 22.2706V49.9133C10.2148 51.2067 11.3019 52.2552 12.6428 52.2552H45.8756C47.2165 52.2552 48.3036 51.2067 48.3036 49.9133V22.2706C48.3036 20.9772 47.2165 19.9287 45.8756 19.9287Z" stroke="#7E2989" stroke-width="0.563675" stroke-miterlimit="10" stroke-linecap="round"/>
<path d="M47.3229 55.0786H11.1853C10.4789 55.0786 9.90625 55.6309 9.90625 56.3123V56.9814C9.90625 57.6627 10.4789 58.2151 11.1853 58.2151H47.3229C48.0293 58.2151 48.602 57.6627 48.602 56.9814V56.3123C48.602 55.6309 48.0293 55.0786 47.3229 55.0786Z" fill="#7E2986"/>
<path d="M91.0808 21.1504H54.9431C54.2367 21.1504 53.6641 21.7027 53.6641 22.3841V23.0532C53.6641 23.7345 54.2367 24.2869 54.9431 24.2869H91.0808C91.7871 24.2869 92.3598 23.7345 92.3598 23.0532V22.3841C92.3598 21.7027 91.7871 21.1504 91.0808 21.1504Z" fill="#7E2986"/>
<path d="M47.3229 60.6406H11.1853C10.4789 60.6406 9.90625 61.193 9.90625 61.8743V62.5434C9.90625 63.2247 10.4789 63.7771 11.1853 63.7771H47.3229C48.0293 63.7771 48.602 63.2247 48.602 62.5434V61.8743C48.602 61.193 48.0293 60.6406 47.3229 60.6406Z" stroke="#7E2989" stroke-width="0.523413" stroke-miterlimit="10"/>
<path d="M47.28 67.1509H11.1423C10.4359 67.1509 9.86328 67.7032 9.86328 68.3846V69.0537C9.86328 69.735 10.4359 70.2873 11.1423 70.2873H47.28C47.9864 70.2873 48.559 69.735 48.559 69.0537V68.3846C48.559 67.7032 47.9864 67.1509 47.28 67.1509Z" stroke="#7E2989" stroke-width="0.523413" stroke-miterlimit="10"/>
<path d="M23.0625 25.0537C23.7128 24.4055 24.5366 23.9245 25.4471 23.6527C26.0975 23.4645 26.8345 23.4018 27.4198 23.6945C28.0051 23.9664 28.417 24.5518 29.0674 24.6564C29.5443 24.74 30.0429 24.5309 30.3898 24.2382C30.7366 23.9454 30.9967 23.5482 31.2135 23.1509" stroke="#7E2989" stroke-width="0.563675" stroke-linecap="round" stroke-linejoin="round"/>
<path d="M21.071 33.0182C20.8108 33.0809 20.529 32.9346 20.3122 33.06C20.2038 33.1228 20.1388 33.2482 20.1171 33.3737C19.8787 34.1682 20.2689 35.0464 20.9626 35.5901C21.6563 36.1338 22.5884 36.3219 23.4556 36.2383C23.6073 36.2383 23.7807 36.1965 23.9108 36.1338C24.0409 36.071 24.1276 35.9037 24.0842 35.7574" stroke="#7E2989" stroke-width="0.563675" stroke-linecap="round" stroke-linejoin="round"/>
<path d="M26.9902 27.2056C27.3804 29.2338 26.665 31.4084 25.1475 32.9139C24.6923 33.3739 24.1287 33.7712 23.5 33.9385" stroke="#7E2989" stroke-width="0.563675" stroke-linecap="round" stroke-linejoin="round"/>
<path d="M32.6891 23.1289C32.494 23.7353 32.6891 24.4044 32.9276 24.9899C33.1661 25.5753 33.5346 26.1399 33.7514 26.7463C33.9898 27.4363 34.0115 28.1682 33.8598 28.8791C33.7297 29.4855 33.3395 30.1128 32.6891 30.2173" stroke="#7E2989" stroke-width="0.563675" stroke-linecap="round" stroke-linejoin="round"/>
<path d="M31.2151 27.7925C32.0172 29.298 32.6675 30.908 32.8193 32.5808C32.971 34.2536 32.4941 36.0309 31.2801 37.2855C30.7599 37.8292 30.0445 38.4146 30.2179 39.1256" stroke="#7E2989" stroke-width="0.563675" stroke-linecap="round" stroke-linejoin="round"/>
<path d="M24.668 36.7197C25.0365 37.347 25.3617 37.9952 25.6868 38.6225C25.9687 39.1871 26.2288 39.7516 26.3372 40.358C26.3589 40.5253 26.3805 40.7135 26.4456 40.8808" stroke="#7E2989" stroke-width="0.563675" stroke-linecap="round" stroke-linejoin="round"/>
<path d="M30.0261 30.0078C29.8093 30.656 29.9828 31.3669 30.1995 32.0361C30.4163 32.7052 30.6981 33.3534 30.6981 34.0225C30.6981 34.1061 30.6981 34.2107 30.6331 34.2943C30.5681 34.3779 30.4597 34.4407 30.3513 34.4616C30.0044 34.587 29.6576 34.6498 29.2891 34.6498" stroke="#7E2989" stroke-width="0.563675" stroke-linecap="round" stroke-linejoin="round"/>
<path d="M24.733 41.2787C24.733 41.2787 24.668 41.2787 24.668 41.216C24.7113 40.986 24.7547 40.756 24.798 40.5469C24.9931 40.8187 25.2533 41.0487 25.5568 41.1951" stroke="#7E2989" stroke-width="0.563675" stroke-linecap="round" stroke-linejoin="round"/>
<path d="M26.8984 42.3C27.7929 42.3852 28.7154 42.4065 29.6099 42.3426C30.4206 42.3 31.2312 42.1721 31.8462 41.7884C32.4611 41.4047 32.7407 40.68 32.2655 40.2111C32.3493 39.934 32.8804 39.8487 33.1879 39.9979C33.4954 40.1471 33.6072 40.4669 33.5793 40.7227C33.5513 40.9784 33.4395 41.2555 33.3557 41.5326C35.2006 42.4065 37.4927 43.0247 38.7506 44.3249C40.0085 45.6251 40.7633 47.2663 40.4558 48.8437" stroke="#7E2989" stroke-width="0.563675" stroke-linecap="round" stroke-linejoin="round"/>
<path d="M22.438 42.9927C21.0723 44.54 19.88 46.2128 18.8828 47.9901C18.7094 48.3037 18.5359 48.6383 18.4492 48.9938" stroke="#7E2989" stroke-width="0.563675" stroke-linecap="round" stroke-linejoin="round"/>
<path d="M22.2217 25.1987C21.0078 25.6378 19.9889 26.5788 19.512 27.7079C19.035 28.837 19.1001 30.1543 19.6854 31.2416C19.8588 31.5762 20.184 31.9317 20.5742 31.8689" stroke="#7E2989" stroke-width="0.563675" stroke-linecap="round" stroke-linejoin="round"/>
<path d="M81.3126 28.606H55.9056C55.5824 28.606 55.3203 28.8587 55.3203 29.1705V31.7842C55.3203 32.096 55.5824 32.3488 55.9056 32.3488H81.3126C81.6358 32.3488 81.8979 32.096 81.8979 31.7842V29.1705C81.8979 28.8587 81.6358 28.606 81.3126 28.606Z" stroke="#7E2989" stroke-width="0.362363" stroke-miterlimit="10"/>
<path d="M80.2956 29.6001H56.7105C56.3699 29.6001 56.0938 29.873 56.0938 30.2097V30.8681C56.0938 31.2047 56.3699 31.4776 56.7105 31.4776H80.2956C80.6362 31.4776 80.9124 31.2047 80.9124 30.8681V30.2097C80.9124 29.873 80.6362 29.6001 80.2956 29.6001Z" fill="#7E2A88"/>
<path d="M81.3126 34.7954H55.9056C55.5824 34.7954 55.3203 35.0482 55.3203 35.36V37.9737C55.3203 38.2855 55.5824 38.5383 55.9056 38.5383H81.3126C81.6358 38.5383 81.8979 38.2855 81.8979 37.9737V35.36C81.8979 35.0482 81.6358 34.7954 81.3126 34.7954Z" stroke="#7E2989" stroke-width="0.362363" stroke-miterlimit="10"/>
<path d="M80.2956 35.7017H56.7105C56.3699 35.7017 56.0938 35.9746 56.0938 36.3113V36.9696C56.0938 37.3063 56.3699 37.5792 56.7105 37.5792H80.2956C80.6362 37.5792 80.9124 37.3063 80.9124 36.9696V36.3113C80.9124 35.9746 80.6362 35.7017 80.2956 35.7017Z" fill="#7E2A88"/>
<path d="M81.3126 41.5918H55.9056C55.5824 41.5918 55.3203 41.8446 55.3203 42.1564V44.7701C55.3203 45.0819 55.5824 45.3346 55.9056 45.3346H81.3126C81.6358 45.3346 81.8979 45.0819 81.8979 44.7701V42.1564C81.8979 41.8446 81.6358 41.5918 81.3126 41.5918Z" stroke="#7E2989" stroke-width="0.362363" stroke-miterlimit="10"/>
<path d="M80.2956 42.7427H56.7105C56.3699 42.7427 56.0938 43.0156 56.0938 43.3523V44.0106C56.0938 44.3473 56.3699 44.6202 56.7105 44.6202H80.2956C80.6362 44.6202 80.9124 44.3473 80.9124 44.0106V43.3523C80.9124 43.0156 80.6362 42.7427 80.2956 42.7427Z" fill="#7E2A88"/>
<path d="M81.3126 47.7603H55.9056C55.5824 47.7603 55.3203 48.013 55.3203 48.3248V50.9385C55.3203 51.2503 55.5824 51.5031 55.9056 51.5031H81.3126C81.6358 51.5031 81.8979 51.2503 81.8979 50.9385V48.3248C81.8979 48.013 81.6358 47.7603 81.3126 47.7603Z" stroke="#7E2989" stroke-width="0.362363" stroke-miterlimit="10"/>
<path d="M80.2956 48.8447H56.7105C56.3699 48.8447 56.0938 49.1177 56.0938 49.4543V50.1127C56.0938 50.4494 56.3699 50.7223 56.7105 50.7223H80.2956C80.6362 50.7223 80.9124 50.4494 80.9124 50.1127V49.4543C80.9124 49.1177 80.6362 48.8447 80.2956 48.8447Z" fill="#7E2A88"/>
<path d="M81.3126 53.9497H55.9056C55.5824 53.9497 55.3203 54.2025 55.3203 54.5143V57.128C55.3203 57.4398 55.5824 57.6926 55.9056 57.6926H81.3126C81.6358 57.6926 81.8979 57.4398 81.8979 57.128V54.5143C81.8979 54.2025 81.6358 53.9497 81.3126 53.9497Z" stroke="#7E2989" stroke-width="0.362363" stroke-miterlimit="10"/>
<path d="M80.2956 54.9468H56.7105C56.3699 54.9468 56.0938 55.2197 56.0938 55.5564V56.2147C56.0938 56.5514 56.3699 56.8243 56.7105 56.8243H80.2956C80.6362 56.8243 80.9124 56.5514 80.9124 56.2147V55.5564C80.9124 55.2197 80.6362 54.9468 80.2956 54.9468Z" fill="#7E2A88"/>
<path d="M81.3126 60.1396H55.9056C55.5824 60.1396 55.3203 60.3924 55.3203 60.7042V63.3179C55.3203 63.6297 55.5824 63.8825 55.9056 63.8825H81.3126C81.6358 63.8825 81.8979 63.6297 81.8979 63.3179V60.7042C81.8979 60.3924 81.6358 60.1396 81.3126 60.1396Z" stroke="#7E2989" stroke-width="0.362363" stroke-miterlimit="10"/>
<path d="M81.3126 66.7104H55.9056C55.5824 66.7104 55.3203 66.9632 55.3203 67.275V69.8887C55.3203 70.2005 55.5824 70.4533 55.9056 70.4533H81.3126C81.6358 70.4533 81.8979 70.2005 81.8979 69.8887V67.275C81.8979 66.9632 81.6358 66.7104 81.3126 66.7104Z" stroke="#7E2989" stroke-width="0.362363" stroke-miterlimit="10"/>
<path d="M80.2956 61.0488H56.7105C56.3699 61.0488 56.0938 61.3218 56.0938 61.6584V62.3168C56.0938 62.6535 56.3699 62.9264 56.7105 62.9264H80.2956C80.6362 62.9264 80.9124 62.6535 80.9124 62.3168V61.6584C80.9124 61.3218 80.6362 61.0488 80.2956 61.0488Z" fill="#7E2A88"/>
<path d="M80.2956 67.6206H56.7105C56.3699 67.6206 56.0938 67.8935 56.0938 68.2302V68.8886C56.0938 69.2252 56.3699 69.4982 56.7105 69.4982H80.2956C80.6362 69.4982 80.9124 69.2252 80.9124 68.8886V68.2302C80.9124 67.8935 80.6362 67.6206 80.2956 67.6206Z" fill="#7E2A88"/>
<path d="M90.7471 28.8789H85.4576C85.302 28.8789 85.1758 29.0006 85.1758 29.1507V32.3499C85.1758 32.5 85.302 32.6217 85.4576 32.6217H90.7471C90.9027 32.6217 91.0289 32.5 91.0289 32.3499V29.1507C91.0289 29.0006 90.9027 28.8789 90.7471 28.8789Z" stroke="#7E2989" stroke-width="0.362363" stroke-miterlimit="10"/>
<path d="M90.7471 35.0679H85.4576C85.302 35.0679 85.1758 35.1896 85.1758 35.3397V38.5389C85.1758 38.689 85.302 38.8107 85.4576 38.8107H90.7471C90.9027 38.8107 91.0289 38.689 91.0289 38.5389V35.3397C91.0289 35.1896 90.9027 35.0679 90.7471 35.0679Z" stroke="#7E2989" stroke-width="0.362363" stroke-miterlimit="10"/>
<path d="M90.7471 41.8428H85.4576C85.302 41.8428 85.1758 41.9645 85.1758 42.1146V45.3138C85.1758 45.4639 85.302 45.5856 85.4576 45.5856H90.7471C90.9027 45.5856 91.0289 45.4639 91.0289 45.3138V42.1146C91.0289 41.9645 90.9027 41.8428 90.7471 41.8428Z" stroke="#7E2989" stroke-width="0.362363" stroke-miterlimit="10"/>
<path d="M90.7471 48.0322H85.4576C85.302 48.0322 85.1758 48.1539 85.1758 48.3041V51.5032C85.1758 51.6534 85.302 51.7751 85.4576 51.7751H90.7471C90.9027 51.7751 91.0289 51.6534 91.0289 51.5032V48.3041C91.0289 48.1539 90.9027 48.0322 90.7471 48.0322Z" stroke="#7E2989" stroke-width="0.362363" stroke-miterlimit="10"/>
<path d="M90.7471 54.2212H85.4576C85.302 54.2212 85.1758 54.3429 85.1758 54.493V57.6922C85.1758 57.8423 85.302 57.964 85.4576 57.964H90.7471C90.9027 57.964 91.0289 57.8423 91.0289 57.6922V54.493C91.0289 54.3429 90.9027 54.2212 90.7471 54.2212Z" stroke="#7E2989" stroke-width="0.362363" stroke-miterlimit="10"/>
<path d="M90.7471 60.4102H85.4576C85.302 60.4102 85.1758 60.5319 85.1758 60.682V63.8812C85.1758 64.0313 85.302 64.153 85.4576 64.153H90.7471C90.9027 64.153 91.0289 64.0313 91.0289 63.8812V60.682C91.0289 60.5319 90.9027 60.4102 90.7471 60.4102Z" stroke="#7E2989" stroke-width="0.362363" stroke-miterlimit="10"/>
<path d="M90.7471 66.9819H85.4576C85.302 66.9819 85.1758 67.1036 85.1758 67.2538V70.4529C85.1758 70.6031 85.302 70.7248 85.4576 70.7248H90.7471C90.9027 70.7248 91.0289 70.6031 91.0289 70.4529V67.2538C91.0289 67.1036 90.9027 66.9819 90.7471 66.9819Z" stroke="#7E2989" stroke-width="0.362363" stroke-miterlimit="10"/>
<path d="M13.2695 31.4523V26.0481C13.2695 24.6394 14.4544 23.4966 15.924 23.4966H21.4626" stroke="#7E2986" stroke-width="0.903824" stroke-linecap="round" stroke-linejoin="round"/>
<path d="M13.2695 41.4028V46.8071C13.2695 48.2157 14.4544 49.3586 15.924 49.3586H21.4626" stroke="#7E2986" stroke-width="0.903824" stroke-linecap="round" stroke-linejoin="round"/>
<path d="M45.3063 31.4523V26.0481C45.3063 24.6394 44.1215 23.4966 42.6519 23.4966H37.1133" stroke="#7E2986" stroke-width="0.903824" stroke-linecap="round" stroke-linejoin="round"/>
<path d="M45.3063 41.4028V46.8071C45.3063 48.2157 44.1215 49.3586 42.6519 49.3586H37.1133" stroke="#7E2986" stroke-width="0.903824" stroke-linecap="round" stroke-linejoin="round"/>
<path d="M86.7716 29.8876C87.0614 30.5724 87.4815 31.1942 88.0466 31.7043C88.2349 31.872 88.5971 31.872 88.7203 31.6205C89.3578 30.3139 90.1546 29.0771 91.1036 27.9592C91.2485 27.7845 91.2774 27.5399 91.1036 27.3722C90.9515 27.2255 90.64 27.1975 90.4951 27.3722C89.5026 28.5461 88.6551 29.8247 87.9814 31.2012L88.6551 31.1174C88.2059 30.7121 87.8365 30.216 87.6047 29.664C87.5178 29.4544 87.3222 29.3077 87.0759 29.3776C86.873 29.4335 86.6847 29.678 86.7789 29.8876H86.7716Z" fill="#7E2986"/>
<path d="M86.7716 35.9907C87.0614 36.6754 87.4815 37.2973 88.0466 37.8073C88.2349 37.975 88.5971 37.975 88.7203 37.7235C89.3578 36.4169 90.1546 35.1801 91.1036 34.0622C91.2485 33.8875 91.2774 33.6429 91.1036 33.4752C90.9515 33.3285 90.64 33.3006 90.4951 33.4752C89.5026 34.6491 88.6551 35.9278 87.9814 37.3043L88.6551 37.2204C88.2059 36.8152 87.8365 36.3191 87.6047 35.7671C87.5178 35.5574 87.3222 35.4107 87.0759 35.4806C86.873 35.5365 86.6847 35.781 86.7789 35.9907H86.7716Z" fill="#7E2986"/>
<path d="M86.7716 43.0317C87.0614 43.7164 87.4815 44.3383 88.0466 44.8484C88.2349 45.016 88.5971 45.016 88.7203 44.7645C89.3578 43.4579 90.1546 42.2212 91.1036 41.1032C91.2485 40.9285 91.2774 40.684 91.1036 40.5163C90.9515 40.3695 90.64 40.3416 90.4951 40.5163C89.5026 41.6901 88.6551 42.9688 87.9814 44.3453L88.6551 44.2614C88.2059 43.8562 87.8365 43.3601 87.6047 42.8081C87.5178 42.5985 87.3222 42.4517 87.0759 42.5216C86.873 42.5775 86.6847 42.8221 86.7789 43.0317H86.7716Z" fill="#7E2986"/>
<path d="M86.7716 49.1332C87.0614 49.818 87.4815 50.4399 88.0466 50.9499C88.2349 51.1176 88.5971 51.1176 88.7203 50.8661C89.3578 49.5595 90.1546 48.3227 91.1036 47.2048C91.2485 47.0301 91.2774 46.7855 91.1036 46.6178C90.9515 46.4711 90.64 46.4431 90.4951 46.6178C89.5026 47.7917 88.6551 49.0704 87.9814 50.4468L88.6551 50.363C88.2059 49.9577 87.8365 49.4616 87.6047 48.9096C87.5178 48.7 87.3222 48.5533 87.0759 48.6232C86.873 48.6791 86.6847 48.9236 86.7789 49.1332H86.7716Z" fill="#7E2986"/>
<path d="M86.7716 55.2353C87.0614 55.92 87.4815 56.5419 88.0466 57.052C88.2349 57.2197 88.5971 57.2197 88.7203 56.9681C89.3578 55.6615 90.1546 54.4248 91.1036 53.3068C91.2485 53.1321 91.2774 52.8876 91.1036 52.7199C90.9515 52.5731 90.64 52.5452 90.4951 52.7199C89.5026 53.8937 88.6551 55.1724 87.9814 56.5489L88.6551 56.465C88.2059 56.0598 87.8365 55.5637 87.6047 55.0117C87.5178 54.8021 87.3222 54.6553 87.0759 54.7252C86.873 54.7811 86.6847 55.0257 86.7789 55.2353H86.7716Z" fill="#7E2986"/>
<path d="M86.7716 61.3373C87.0614 62.0221 87.4815 62.6439 88.0466 63.154C88.2349 63.3217 88.5971 63.3217 88.7203 63.0702C89.3578 61.7636 90.1546 60.5268 91.1036 59.4089C91.2485 59.2342 91.2774 58.9896 91.1036 58.8219C90.9515 58.6752 90.64 58.6472 90.4951 58.8219C89.5026 59.9958 88.6551 61.2744 87.9814 62.6509L88.6551 62.5671C88.2059 62.1618 87.8365 61.6657 87.6047 61.1137C87.5178 60.9041 87.3222 60.7574 87.0759 60.8273C86.873 60.8832 86.6847 61.1277 86.7789 61.3373H86.7716Z" fill="#7E2986"/>
<path d="M86.7716 67.9096C87.0614 68.5944 87.4815 69.2162 88.0466 69.7263C88.2349 69.894 88.5971 69.894 88.7203 69.6424C89.3578 68.3358 90.1546 67.0991 91.1036 65.9811C91.2485 65.8064 91.2774 65.5619 91.1036 65.3942C90.9515 65.2475 90.64 65.2195 90.4951 65.3942C89.5026 66.5681 88.6551 67.8467 87.9814 69.2232L88.6551 69.1394C88.2059 68.7341 87.8365 68.238 87.6047 67.686C87.5178 67.4764 87.3222 67.3297 87.0759 67.3995C86.873 67.4554 86.6847 67.7 86.7789 67.9096H86.7716Z" fill="#7E2986"/>
</g>
<defs>
<clipPath id="clip0_3164_12767">
<rect width="100" height="73.9394" fill="white" transform="translate(0.5 10.6875)"/>
</clipPath>
</defs>
</svg>
