<svg width="108" height="100" viewBox="0 0 108 100" fill="none" xmlns="http://www.w3.org/2000/svg">
<path d="M99.9255 5.42578H7.89189C4.17837 5.42578 1.16797 8.32946 1.16797 11.9113V88.4639C1.16797 92.0458 4.17837 94.9494 7.89189 94.9494H99.9255C103.639 94.9494 106.649 92.0458 106.649 88.4639V11.9113C106.649 8.32946 103.639 5.42578 99.9255 5.42578Z" stroke="#7E2989" stroke-width="1.31824" stroke-miterlimit="10" stroke-linecap="round"/>
<path d="M32.838 43.6381C31.7488 40.3044 31.6333 36.4755 33.4157 33.4719C34.2739 32.003 35.5446 30.7983 36.3038 29.2799C36.8814 28.1082 37.1455 26.8044 37.7066 25.6161C38.3503 24.2793 39.357 23.1571 40.3637 22.0514C40.8918 21.4737 41.4364 20.8796 42.1131 20.5C42.6742 20.1864 43.3013 20.0379 43.912 19.8894C45.8594 19.4108 47.8068 18.9322 49.7543 18.4536C51.7512 17.9585 53.7811 17.4633 55.8111 17.6779C57.841 17.8924 59.9205 18.9322 60.7952 20.7806C61.5544 20.0379 62.363 19.2622 63.3698 18.9322C64.3765 18.6021 65.6803 18.8827 66.1754 19.8399C66.3899 20.2525 66.4229 20.7146 66.5384 21.1602C67.0666 22.9921 68.9645 24.0318 70.2353 25.4511C71.8691 27.283 72.4797 29.8246 72.6283 32.2671C72.7768 34.7096 72.5458 37.1852 72.7438 39.6277C72.8428 40.816 73.0574 42.0207 72.8428 43.209C72.6613 44.1662 72.2157 45.0409 71.7536 45.8826C69.7402 49.5299 67.2646 52.9296 64.4095 55.9498C64.3105 55.6032 64.2114 55.2401 64.1289 54.8936C62.9902 57.4021 60.6301 59.0855 58.5507 60.9009C56.3722 62.7988 54.4248 64.9608 52.1308 66.7101C49.8368 68.4595 47.0807 69.8128 44.1925 69.7633C43.6479 69.7633 43.1033 69.6808 42.6247 69.4497C42.0141 69.1527 41.5685 68.6246 41.1559 68.0799C39.5715 65.9345 38.5978 63.3269 38.3668 60.6698C38.2347 59.0525 38.3668 57.4021 37.9872 55.8178C37.5416 53.9363 36.9309 51.6753 36.0728 49.9425C35.0165 47.7805 33.5642 45.9981 32.805 43.6546L32.838 43.6381Z" fill="white"/>
<path d="M53.6519 27.8609C50.5658 31.9868 46.4234 35.2381 41.7198 37.334L42.5945 37.4495C42.5945 37.4495 42.5945 37.5486 42.6605 37.5321C43.3867 36.9709 42.3635 35.9477 41.6538 36.5253C41.0267 37.0204 41.0597 37.9281 41.5878 38.4728C41.8354 38.7203 42.1654 38.7203 42.4625 38.5883C47.3971 36.3933 51.6715 32.911 54.9062 28.5871C55.4673 27.8444 54.2131 27.1348 53.6684 27.8609H53.6519Z" fill="#7E2986"/>
<path d="M55.5307 29.3291C56.5209 33.158 58.5013 36.6733 61.2244 39.5284C61.868 40.205 62.8748 39.1818 62.2311 38.5217C59.6731 35.8481 57.8412 32.5474 56.9005 28.9661C56.6694 28.0749 55.2831 28.4545 55.5142 29.3457L55.5307 29.3291Z" fill="#7E2986"/>
<path d="M41.1742 27.2666C43.6497 24.7911 46.2408 22.1505 49.657 21.0447C52.6277 20.0875 56.2585 20.5331 58.1069 23.2892C58.6185 24.0484 59.8563 23.3388 59.3447 22.5631C57.3147 19.5759 53.5684 18.6187 50.1522 19.4109C46.0923 20.3681 43.0061 23.3883 40.151 26.2434C39.4908 26.9035 40.514 27.9103 41.1577 27.2501L41.1742 27.2666Z" fill="#7E2986"/>
<path d="M62.7401 23.9163C63.4168 23.6028 63.9779 23.0912 64.4235 22.497C64.8691 21.9029 65.1166 21.1767 65.1992 20.4176C65.2157 20.2525 65.1001 20.0215 64.9846 19.906C64.8526 19.7739 64.6545 19.6914 64.473 19.6914C64.2915 19.6914 64.0934 19.7574 63.9614 19.906C63.8294 20.0545 63.7798 20.2195 63.7468 20.4176C63.7798 20.17 63.7468 20.4341 63.7303 20.5001C63.7303 20.5661 63.6973 20.6321 63.6808 20.6981C63.6643 20.7806 63.6313 20.8467 63.6148 20.9127C63.5983 20.9787 63.5488 21.0447 63.5488 21.1107C63.5488 21.0612 63.6148 20.9622 63.5488 21.0777C63.5488 21.1107 63.5158 21.1437 63.4993 21.1767C63.4663 21.2427 63.4333 21.3088 63.3838 21.3748C63.3177 21.5068 63.2352 21.6223 63.1362 21.7544C63.0702 21.8534 63.2187 21.6553 63.1527 21.7214C63.1362 21.7544 63.1032 21.7709 63.0867 21.8039C63.0372 21.8534 62.9877 21.9029 62.9382 21.9689C62.8391 22.0844 62.7236 22.1835 62.6081 22.266C62.5751 22.2825 62.5421 22.3155 62.5256 22.332C62.5916 22.2825 62.6576 22.2 62.5256 22.332C62.4761 22.365 62.41 22.4145 62.344 22.4475C62.212 22.53 62.08 22.596 61.9314 22.6621C61.5849 22.8106 61.4858 23.3387 61.6674 23.6358C61.8984 23.9823 62.278 24.0649 62.6411 23.8998L62.7401 23.9163Z" fill="#7E2986"/>
<path d="M64.0787 25.6499C66.4553 28.0099 68.8813 30.7495 69.4919 34.1657C69.987 36.9218 69.0298 40.1235 66.4388 41.5098C65.6301 41.9389 66.3562 43.1767 67.1649 42.7476C70.1191 41.1798 71.3568 37.6315 70.9608 34.4298C70.4822 30.5019 67.7756 27.3332 65.0855 24.6432C64.4253 23.983 63.4186 25.0062 64.0787 25.6499Z" fill="#7E2986"/>
<path d="M39.2258 30.3362C38.6317 31.9206 37.3609 33.0923 36.3377 34.3796C35.3145 35.6669 34.5058 37.1852 34.4233 38.9346C34.2417 42.3674 36.7668 45.4205 40.1335 45.9652C41.0412 46.1137 41.4208 44.7274 40.5131 44.5789C37.3939 44.0672 35.2154 41.0636 36.0076 37.9114C36.3707 36.4756 37.3444 35.3698 38.2851 34.2641C39.2258 33.1583 40.117 32.0526 40.6286 30.6828C40.9587 29.8246 39.5724 29.445 39.2423 30.3032L39.2258 30.3362Z" fill="#7E2986"/>
<path d="M41.4181 43.6053C41.4676 46.4769 41.8472 49.5301 43.4811 51.9891C44.8839 54.1016 47.1119 55.6694 49.7029 55.8014C50.6271 55.8509 50.6271 54.4151 49.7029 54.3656C47.5244 54.2501 45.643 52.7813 44.5373 50.9659C43.2005 48.7709 42.8869 46.1303 42.8539 43.6053C42.8539 42.6811 41.4016 42.6811 41.4181 43.6053Z" fill="#7E2986"/>
<path d="M63.5026 45.6516C63.6182 49.8106 60.829 53.8374 56.8517 55.1247C55.977 55.4053 56.3566 56.7916 57.2313 56.511C61.8028 55.0422 65.0705 50.4707 64.9384 45.6516C64.9054 44.7274 63.4696 44.7274 63.5026 45.6516Z" fill="#7E2986"/>
<path d="M40.0111 58.4681C30.7526 62.7095 25.7685 73.4369 25.5704 83.2235C25.5539 84.3623 27.3198 84.3623 27.3363 83.2235C27.5344 74.0145 32.1884 63.9803 40.9023 59.9864C41.942 59.5078 41.0343 57.9895 40.0111 58.4681Z" fill="#7E2986"/>
<path d="M66.9428 60.9106C73.6597 66.9509 77.6866 75.4503 79.205 84.2797C79.403 85.402 81.1029 84.9234 80.9048 83.8176C79.3535 74.7241 75.1121 65.8947 68.197 59.6728C67.3554 58.9137 66.1011 60.1514 66.9428 60.9271V60.9106Z" fill="#7E2986"/>
<path d="M46.8398 38.9962C48.4071 38.9962 50.3582 38.6757 51.0739 40.5049C51.5416 41.6999 51.3508 42.8996 51.4903 44.155C51.6324 45.4338 51.4256 47.1661 52.4853 48.1295C52.8351 48.4475 55.0714 48.9514 54.9187 48.3404" stroke="#7E2986" stroke-width="0.84375" stroke-linecap="round"/>
<path d="M9.64062 37.3404V22.3741C9.64062 18.4731 12.9219 15.3081 16.9918 15.3081H32.3301" stroke="#7E2986" stroke-width="2.11373" stroke-linecap="round" stroke-linejoin="round"/>
<path d="M9.64062 64.8931V79.8593C9.64062 83.7604 12.9219 86.9254 16.9918 86.9254H32.3301" stroke="#7E2986" stroke-width="2.11373" stroke-linecap="round" stroke-linejoin="round"/>
<path d="M98.3653 37.3404V22.3741C98.3653 18.4731 95.0839 15.3081 91.0141 15.3081H75.6758" stroke="#7E2986" stroke-width="2.11373" stroke-linecap="round" stroke-linejoin="round"/>
<path d="M98.3653 64.8931V79.8593C98.3653 83.7604 95.0839 86.9254 91.0141 86.9254H75.6758" stroke="#7E2986" stroke-width="2.11373" stroke-linecap="round" stroke-linejoin="round"/>
<path d="M77.2838 24.3438V20.49H78.8758C79.1643 20.49 79.4133 20.5421 79.6228 20.6462C79.8336 20.749 79.996 20.8971 80.1102 21.0903C80.2243 21.2822 80.2814 21.5099 80.2814 21.7733C80.2814 22.0405 80.2231 22.2676 80.1064 22.4545C79.9897 22.6402 79.8241 22.7819 79.6096 22.8798C79.3951 22.9764 79.1411 23.0247 78.8475 23.0247H77.8408V22.2908H78.6744C78.8149 22.2908 78.9322 22.2726 79.0263 22.2362C79.1216 22.1986 79.1938 22.1421 79.2427 22.0669C79.2916 21.9904 79.3161 21.8925 79.3161 21.7733C79.3161 21.6542 79.2916 21.5557 79.2427 21.4779C79.1938 21.3989 79.1216 21.3399 79.0263 21.301C78.931 21.2609 78.8137 21.2408 78.6744 21.2408H78.2153V24.3438H77.2838ZM79.4534 22.5825L80.4131 24.3438H79.397L78.4561 22.5825H79.4534ZM82.2984 24.3983C81.9961 24.3983 81.7351 24.3387 81.5156 24.2196C81.2973 24.0991 81.1292 23.9279 81.0113 23.7058C80.8946 23.4826 80.8363 23.2172 80.8363 22.9099C80.8363 22.6113 80.8953 22.3504 81.0132 22.1271C81.1311 21.9025 81.2973 21.7282 81.5118 21.604C81.7264 21.4785 81.9791 21.4158 82.2702 21.4158C82.4759 21.4158 82.6641 21.4478 82.8347 21.5118C83.0053 21.5757 83.1527 21.6705 83.2769 21.7959C83.4011 21.9214 83.4977 22.0763 83.5667 22.2607C83.6357 22.4438 83.6702 22.654 83.6702 22.8911V23.1206H81.1581V22.5862H82.814C82.8127 22.4884 82.7895 22.4012 82.7444 22.3247C82.6992 22.2481 82.6371 22.1886 82.5581 22.1459C82.4803 22.102 82.3906 22.08 82.289 22.08C82.1861 22.08 82.0939 22.1033 82.0124 22.1497C81.9308 22.1948 81.8662 22.2569 81.8186 22.336C81.7709 22.4137 81.7458 22.5022 81.7433 22.6013V23.1451C81.7433 23.263 81.7665 23.3665 81.8129 23.4556C81.8593 23.5434 81.9252 23.6118 82.0105 23.6607C82.0958 23.7096 82.1974 23.7341 82.3153 23.7341C82.3969 23.7341 82.4709 23.7228 82.5374 23.7002C82.6039 23.6776 82.6609 23.6444 82.7086 23.6005C82.7563 23.5566 82.792 23.5026 82.8159 23.4386L83.6608 23.4631C83.6256 23.6525 83.5485 23.8175 83.4293 23.958C83.3114 24.0972 83.1565 24.2058 82.9645 24.2835C82.7726 24.3601 82.5505 24.3983 82.2984 24.3983ZM85.7013 24.3983C85.3964 24.3983 85.1349 24.3356 84.9166 24.2101C84.6996 24.0847 84.5327 23.9103 84.4161 23.687C84.2994 23.4625 84.2411 23.2028 84.2411 22.908C84.2411 22.6119 84.2994 22.3523 84.4161 22.129C84.534 21.9044 84.7015 21.7294 84.9185 21.604C85.1368 21.4785 85.3971 21.4158 85.6994 21.4158C85.9666 21.4158 86.1993 21.4641 86.3975 21.5607C86.597 21.6573 86.7525 21.794 86.8642 21.9709C86.9771 22.1465 87.0367 22.3529 87.0429 22.59H86.183C86.1654 22.442 86.1152 22.3259 86.0325 22.2419C85.9509 22.1578 85.8443 22.1158 85.7126 22.1158C85.6059 22.1158 85.5125 22.1459 85.4322 22.2061C85.3519 22.2651 85.2892 22.3529 85.244 22.4696C85.2001 22.585 85.1782 22.728 85.1782 22.8986C85.1782 23.0692 85.2001 23.2135 85.244 23.3314C85.2892 23.4481 85.3519 23.5365 85.4322 23.5967C85.5125 23.6557 85.6059 23.6851 85.7126 23.6851C85.7979 23.6851 85.8731 23.667 85.9384 23.6306C86.0049 23.5942 86.0594 23.5409 86.1021 23.4706C86.1447 23.3991 86.1717 23.3126 86.183 23.211H87.0429C87.0342 23.4493 86.9746 23.6576 86.8642 23.8357C86.755 24.0138 86.6014 24.1524 86.4031 24.2515C86.2062 24.3494 85.9722 24.3983 85.7013 24.3983Z" fill="#7E2986"/>
<ellipse cx="91.878" cy="23.5274" rx="2.0733" ry="2.0733" fill="#7E2986"/>
</svg>
