<svg width="101" height="100" viewBox="0 0 101 100" fill="none" xmlns="http://www.w3.org/2000/svg">
<g clip-path="url(#clip0_3164_12877)">
<path d="M79.7584 28.2017H9.6117C5.39277 28.2017 1.97266 31.6218 1.97266 35.8407V77.5241C1.97266 81.743 5.39277 85.1632 9.6117 85.1632H79.7584C83.9773 85.1632 87.3974 81.743 87.3974 77.5241V35.8407C87.3974 31.6218 83.9773 28.2017 79.7584 28.2017Z" fill="white" stroke="#7E2989" stroke-width="1.38327" stroke-linecap="round" stroke-linejoin="round"/>
<path d="M28.551 35.1426H11.9474C10.175 35.1426 8.73828 36.5793 8.73828 38.3517V54.9553C8.73828 56.7276 10.175 58.1644 11.9474 58.1644H28.551C30.3233 58.1644 31.7601 56.7276 31.7601 54.9553V38.3517C31.7601 36.5793 30.3233 35.1426 28.551 35.1426Z" stroke="#7E2989" stroke-width="1.38327" stroke-linecap="round" stroke-linejoin="round"/>
<path d="M74.7367 35.7363H39.3669C38.2495 35.7363 37.3438 36.6421 37.3438 37.7595V37.9687C37.3438 39.0861 38.2495 39.9919 39.3669 39.9919H74.7367C75.8541 39.9919 76.7598 39.0861 76.7598 37.9687V37.7595C76.7598 36.6421 75.8541 35.7363 74.7367 35.7363Z" fill="#7E2989"/>
<path d="M74.7367 41.2827H39.3669C38.2495 41.2827 37.3438 42.1885 37.3438 43.3058V43.5151C37.3438 44.6325 38.2495 45.5383 39.3669 45.5383H74.7367C75.8541 45.5383 76.7598 44.6325 76.7598 43.5151V43.3058C76.7598 42.1885 75.8541 41.2827 74.7367 41.2827Z" fill="#7E2989"/>
<path d="M74.7367 46.8984H39.3669C38.2495 46.8984 37.3438 47.8042 37.3438 48.9216V49.1309C37.3438 50.2482 38.2495 51.154 39.3669 51.154H74.7367C75.8541 51.154 76.7598 50.2482 76.7598 49.1309V48.9216C76.7598 47.8042 75.8541 46.8984 74.7367 46.8984Z" fill="#7E2989"/>
<path d="M74.1786 64.1299H39.2622C38.2027 64.1299 37.3438 64.9888 37.3438 66.0484V66.4669C37.3438 67.5265 38.2027 68.3854 39.2622 68.3854H74.1786C75.2382 68.3854 76.0971 67.5265 76.0971 66.4669V66.0484C76.0971 64.9888 75.2382 64.1299 74.1786 64.1299Z" stroke="#7E2989" stroke-width="1.38327" stroke-linecap="round" stroke-linejoin="round"/>
<path d="M74.1786 56.8032H39.2622C38.2027 56.8032 37.3438 57.6622 37.3438 58.7217V59.1403C37.3438 60.1998 38.2027 61.0588 39.2622 61.0588H74.1786C75.2382 61.0588 76.0971 60.1998 76.0971 59.1403V58.7217C76.0971 57.6622 75.2382 56.8032 74.1786 56.8032Z" stroke="#7E2989" stroke-width="1.38327" stroke-linecap="round" stroke-linejoin="round"/>
<path d="M74.1786 72.1875H39.2622C38.2027 72.1875 37.3438 73.0464 37.3438 74.106V74.5246C37.3438 75.5841 38.2027 76.443 39.2622 76.443H74.1786C75.2382 76.443 76.0971 75.5841 76.0971 74.5246V74.106C76.0971 73.0464 75.2382 72.1875 74.1786 72.1875Z" stroke="#7E2989" stroke-width="1.38327" stroke-linecap="round" stroke-linejoin="round"/>
<path d="M29.8416 63.3984H10.6568C9.59721 63.3984 8.73828 64.2574 8.73828 65.3169V65.7355C8.73828 66.795 9.59721 67.654 10.6568 67.654H29.8416C30.9011 67.654 31.7601 66.795 31.7601 65.7355V65.3169C31.7601 64.2574 30.9011 63.3984 29.8416 63.3984Z" stroke="#7E2989" stroke-width="1.38327" stroke-linecap="round" stroke-linejoin="round"/>
<path d="M29.8416 72.1865H10.6568C9.59721 72.1865 8.73828 73.0455 8.73828 74.105V74.5236C8.73828 75.5831 9.59721 76.4421 10.6568 76.4421H29.8416C30.9011 76.4421 31.7601 75.5831 31.7601 74.5236V74.105C31.7601 73.0455 30.9011 72.1865 29.8416 72.1865Z" stroke="#7E2989" stroke-width="1.38327" stroke-linecap="round" stroke-linejoin="round"/>
<path d="M22.1661 38.0034C22.0963 38.6662 22.5149 39.2592 22.8289 39.8521C23.1079 40.3405 23.3172 40.8986 23.4218 41.4567C23.5962 42.259 23.6311 43.1659 23.1777 43.8635C22.7242 44.596 21.8522 45.0146 21.4336 45.7471" stroke="#7E2989" stroke-width="1.38327" stroke-linecap="round" stroke-linejoin="round"/>
<path d="M17.1852 38.3867C17.0108 38.8751 16.5922 39.2588 16.1388 39.5378C15.6853 39.8169 15.197 40.061 14.8133 40.4098C13.8715 41.3168 13.8017 42.9562 14.5342 44.0375C14.6738 44.2817 14.883 44.491 15.1621 44.5259C15.4411 44.5607 15.7551 44.3515 15.6853 44.0724" stroke="#7E2989" stroke-width="1.38327" stroke-linecap="round" stroke-linejoin="round"/>
<path d="M23.0742 47.1426C23.7718 48.6076 25.795 48.8518 26.9112 50.0377C27.6786 50.84 27.9227 51.9911 28.132 53.0724C28.3064 53.9445 28.4809 54.8514 28.6553 55.7234" stroke="#7E2989" stroke-width="1.38327" stroke-linecap="round" stroke-linejoin="round"/>
<path d="M17.1807 46.0962C16.9017 46.6543 16.4133 47.1078 15.8203 47.3868C16.0994 47.7705 16.4133 48.2588 16.2738 48.7123C16.1692 49.0262 15.925 49.2355 15.6808 49.4797C14.3204 50.7354 13.4833 52.5144 13.3438 54.3282" stroke="#7E2989" stroke-width="1.38327" stroke-linecap="round" stroke-linejoin="round"/>
</g>
<path d="M83.7624 21.146C83.7624 9.92335 72.9206 13.1042 79.1255 22.5124C72.9206 13.1042 65.5284 21.6388 75.9446 26.1637C65.5284 21.6388 63.9156 32.8166 75.2502 30.9574C63.9156 32.8166 68.5973 43.0985 77.2662 35.3703C68.5973 43.0985 78.1175 49.2138 81.3431 37.9911C78.1175 49.2138 89.4073 49.2138 86.1816 37.9911C89.4073 49.2138 98.9275 43.1209 90.2585 35.3703C98.9275 43.0985 103.609 32.8166 92.2746 30.9574C103.609 32.8166 102.019 21.6388 91.5802 26.1637C101.996 21.6388 94.6042 13.0818 88.3993 22.5124C94.6042 13.1042 83.7624 9.92335 83.7624 21.146Z" fill="#7E2986"/>
<path d="M83.7605 42.3363C90.8122 42.3363 96.5287 36.6198 96.5287 29.5681C96.5287 22.5164 90.8122 16.7998 83.7605 16.7998C76.7087 16.7998 70.9922 22.5164 70.9922 29.5681C70.9922 36.6198 76.7087 42.3363 83.7605 42.3363Z" fill="#7E2986"/>
<path d="M76.9063 30.8678C77.8024 33.0631 79.1016 35.0567 80.8488 36.6919C81.4312 37.2295 82.5513 37.2295 82.9321 36.4231C84.9033 32.2342 87.3674 28.2694 90.3018 24.6853C90.7498 24.1253 90.8394 23.3413 90.3018 22.8036C89.8314 22.3332 88.8682 22.2436 88.4202 22.8036C85.3513 26.5669 82.7305 30.6662 80.6472 35.0791L82.7305 34.8103C81.3416 33.5111 80.1992 31.9206 79.4824 30.151C79.2136 29.479 78.6088 29.0086 77.8472 29.2326C77.22 29.4118 76.6375 30.1958 76.9287 30.8678H76.9063Z" fill="#F6F7F7"/>
<defs>
<clipPath id="clip0_3164_12877">
<rect width="87.0642" height="58.6009" fill="white" transform="translate(1.16797 27.3994)"/>
</clipPath>
</defs>
</svg>
