<svg width="101" height="101" viewBox="0 0 101 101" fill="none" xmlns="http://www.w3.org/2000/svg">
<path d="M24.8543 49.9551L21.1284 24.0931C20.831 21.9954 22.2869 20.0385 24.3846 19.7411L84.2804 11.1308C86.3782 10.8334 88.335 12.2893 88.6325 14.3871L94.3779 54.2915C94.6753 56.3893 93.2194 58.3461 91.1216 58.6436L56.1642 63.6688" fill="white"/>
<path d="M24.8543 49.9551L21.1284 24.0931C20.831 21.9954 22.2869 20.0385 24.3846 19.7411L84.2804 11.1308C86.3782 10.8334 88.335 12.2893 88.6325 14.3871L94.3778 54.2915C94.6753 56.3893 93.2194 58.3461 91.1216 58.6436L56.1641 63.6688" stroke="#7E2989" stroke-width="1.07923" stroke-linecap="round" stroke-linejoin="round"/>
<path d="M89.7099 21.797L22.1953 31.502L23.4694 40.3655L90.984 30.6605L89.7099 21.797Z" fill="#7E2989"/>
<path d="M85.8601 42.1507L65.8242 45.0308L67.0983 53.8943L87.1342 51.0142L85.8601 42.1507Z" fill="#7E2989"/>
<path d="M86.4069 4.99409C86.4069 -2.84903 78.8299 -0.626032 83.1664 5.94904C78.8299 -0.626032 73.6638 5.3385 80.9434 8.5008C73.6638 5.3385 72.5367 13.1503 80.4581 11.851C72.5367 13.1503 75.8085 20.3359 81.867 14.935C75.8085 20.3359 82.4619 24.6097 84.7162 16.7666C82.4619 24.6097 90.352 24.6097 88.0977 16.7666C90.352 24.6097 97.0053 20.3516 90.9469 14.935C97.0053 20.3359 100.277 13.1503 92.3558 11.851C100.277 13.1503 99.1657 5.3385 91.8705 8.5008C99.1501 5.3385 93.9839 -0.641687 89.6475 5.94904C93.9839 -0.626032 86.4069 -2.84903 86.4069 4.99409Z" fill="#7E2986"/>
<path d="M86.4077 19.8037C91.3359 19.8037 95.331 15.8086 95.331 10.8803C95.331 5.95213 91.3359 1.95703 86.4077 1.95703C81.4795 1.95703 77.4844 5.95213 77.4844 10.8803C77.4844 15.8086 81.4795 19.8037 86.4077 19.8037Z" fill="#7E2986"/>
<path d="M81.6164 11.7887C82.2426 13.3228 83.1506 14.7161 84.3717 15.8589C84.7787 16.2347 85.5615 16.2347 85.8276 15.6711C87.2052 12.7436 88.9273 9.97268 90.9781 7.46789C91.2912 7.07652 91.3538 6.5286 90.9781 6.15288C90.6493 5.82413 89.9761 5.76151 89.663 6.15288C87.5183 8.78291 85.6867 11.6478 84.2308 14.7318L85.6867 14.5439C84.7161 13.6359 83.9177 12.5244 83.4167 11.2877C83.2289 10.8181 82.8062 10.4893 82.2739 10.6458C81.8356 10.7711 81.4286 11.319 81.6321 11.7887H81.6164Z" fill="#F6F7F7"/>
<path d="M55.6844 77.3813C50.8783 68.0823 48.8275 57.4369 49.8764 47.0108C50.0955 44.8347 50.5965 42.3769 49.1406 40.4827C47.9508 38.9485 46.0096 38.8545 44.3658 39.6686C40.5773 41.5785 38.8396 46.5255 38.417 50.4548C37.7908 56.2941 39.8102 61.9925 41.7358 67.4091C41.955 68.004 42.9256 67.7536 42.7064 67.143C41.0783 62.5718 39.3719 57.8596 39.2936 52.944C39.2467 48.8267 40.4051 44.052 43.7083 41.2967C44.585 40.5609 45.8061 39.9034 46.9959 40.1696C48.1856 40.4357 48.8118 41.5159 49.0467 42.5961C49.3128 43.7389 49.1249 44.96 48.984 46.1184C48.8431 47.3239 48.7336 48.5449 48.6866 49.766C48.4674 54.3216 48.8275 58.9085 49.7198 63.3858C50.7374 68.4267 52.4751 73.3111 54.8233 77.8823C55.1208 78.4615 55.9818 77.9449 55.6844 77.3813Z" fill="#7E2989" stroke="#7E2989" stroke-width="0.84375"/>
<path d="M41.3656 64.1379C37.4205 64.404 33.9608 61.1634 30.8455 59.1909C26.6969 56.5765 22.2352 54.3692 17.8519 52.1775C17.2726 51.8957 16.7717 52.7567 17.3509 53.0385C21.8752 55.2928 26.5403 57.5628 30.7985 60.3337C33.9138 62.3688 37.4049 65.4059 41.3812 65.1241C42.0231 65.0771 42.0231 64.0752 41.3812 64.1222L41.3656 64.1379Z" fill="#7E2989" stroke="#7E2989" stroke-width="0.84375"/>
<path d="M11.3918 62.5559C9.48188 64.9824 7.33715 67.9099 8.21383 71.1818C9.04354 74.2345 11.9241 75.9565 14.5071 77.3968C15.0707 77.7099 15.5717 76.8488 15.0081 76.5357C12.7225 75.2677 10.0768 73.7805 9.24706 71.1191C8.32342 68.1604 10.3742 65.4364 12.0963 63.2447C12.4876 62.7438 11.7832 62.0236 11.3918 62.5402V62.5559Z" fill="#7E2989" stroke="#7E2989" stroke-width="0.84375"/>
<path d="M15.2543 65.1704C17.1329 66.6106 19.0272 68.0352 20.8901 69.5068C21.1563 69.726 21.5633 70.0077 21.5946 70.3835C21.6259 70.7592 21.3754 70.8375 21.0936 70.6183C20.6553 70.2895 20.3109 69.7886 19.9665 69.3815C19.5751 68.9432 19.1994 68.5049 18.808 68.0665C17.9 67.049 17.0077 66.0314 16.0997 65.0138C15.677 64.5285 14.9726 65.233 15.3952 65.7183C16.3345 66.7828 17.2895 67.8474 18.2288 68.9119C18.6828 69.4285 19.1524 69.9451 19.6064 70.4617C20.0134 70.9157 20.4205 71.4793 21.031 71.6828C22.2364 72.0585 22.9096 70.6653 22.44 69.7103C22.1738 69.178 21.6729 68.8336 21.2189 68.4736L19.5438 67.1742C18.2914 66.2036 17.0234 65.2487 15.771 64.278C15.5518 64.1058 15.2074 64.2467 15.0821 64.4502C14.9256 64.7007 15.0508 64.9669 15.2543 65.1391V65.1704Z" fill="#7E2989"/>
<path d="M21.9519 46.1506C18.5704 45.1174 15.048 44.5695 11.51 44.5538C8.88 44.5538 4.99757 44.3972 3.6669 47.2308C2.33623 50.0643 3.91738 52.6787 5.48287 54.8234C7.70587 57.8761 9.9915 60.8819 12.2302 63.919C12.6059 64.4356 13.4825 63.919 13.0912 63.418C11.103 60.7567 9.13047 58.0797 7.1423 55.4183C5.62377 53.3832 3.47904 50.8314 4.37137 48.1075C4.85668 46.6359 6.12473 46.0254 7.58064 45.8062C9.03654 45.587 10.6647 45.5557 12.1832 45.587C15.4081 45.6496 18.5861 46.1819 21.6701 47.1369C22.2806 47.3247 22.5468 46.3541 21.9362 46.1663L21.9519 46.1506Z" fill="#7E2989" stroke="#7E2989" stroke-width="0.84375"/>
<path d="M21.2754 52.9048C21.8624 52.9242 22.4512 52.9428 23.0439 52.9585C23.078 52.9611 23.1072 52.9766 23.125 52.9937C23.14 53.0081 23.1455 53.0215 23.1455 53.0386C23.1455 53.0467 23.1407 53.0678 23.1182 53.0903C23.0965 53.112 23.0762 53.1163 23.0674 53.1167C22.4776 53.1011 21.8915 53.0825 21.3037 53.063C20.7164 53.0435 20.1272 53.024 19.5342 53.0083C19.5006 53.0055 19.4717 52.9919 19.4541 52.9751C19.4388 52.9605 19.4336 52.9464 19.4336 52.9292C19.4336 52.9211 19.4383 52.9001 19.4609 52.8774C19.4819 52.8564 19.5015 52.8508 19.5107 52.8501C20.1008 52.8657 20.6873 52.8853 21.2754 52.9048Z" fill="#7E2989" stroke="#7E2989" stroke-width="0.84375"/>
<path d="M10.8084 77.2568C8.85156 80.2313 8.6637 84.3016 10.3388 87.4482C9.08638 88.0744 8.61673 89.6555 8.72632 91.0488C8.92983 93.491 10.511 95.667 12.5148 97.0916C14.5186 98.5162 16.8982 99.2833 19.2777 99.9252" stroke="#7E2989" stroke-width="1.51875" stroke-miterlimit="10" stroke-linecap="round"/>
<path d="M15.4258 65.2759C18.9552 69.026 20.2607 70.813 20.7782 71.4934C20.9819 71.7612 21.3304 71.7649 21.6603 71.6989V71.6989C22.3996 71.551 22.7692 70.7154 22.3813 70.0689L22.3083 69.9473C22.0736 69.556 21.7709 69.2097 21.4146 68.9246L19.9135 67.7237L15.4258 64.46" stroke="#7E2989" stroke-width="0.84375" stroke-linecap="round"/>
</svg>
