<svg width="101" height="100" viewBox="0 0 101 100" fill="none" xmlns="http://www.w3.org/2000/svg">
<path d="M76.8228 21.0649H6.93864C5.96073 21.0649 5.16797 21.8577 5.16797 22.8356V26.8254C5.16797 27.8033 5.96073 28.5961 6.93864 28.5961H76.8228C77.8007 28.5961 78.5934 27.8033 78.5934 26.8254V22.8356C78.5934 21.8577 77.8007 21.0649 76.8228 21.0649Z" stroke="#7E2989" stroke-width="1.07462" stroke-miterlimit="10"/>
<path d="M66.2097 23.4717H9.20323C8.30787 23.4717 7.58203 24.1949 7.58203 25.0871C7.58203 25.9793 8.30787 26.7026 9.20323 26.7026H66.2097C67.1051 26.7026 67.8309 25.9793 67.8309 25.0871C67.8309 24.1949 67.1051 23.4717 66.2097 23.4717Z" fill="#7E2989"/>
<path d="M76.8228 37.3145H6.93864C5.96073 37.3145 5.16797 38.1072 5.16797 39.0851V43.0749C5.16797 44.0528 5.96073 44.8456 6.93864 44.8456H76.8228C77.8007 44.8456 78.5934 44.0528 78.5934 43.0749V39.0851C78.5934 38.1072 77.8007 37.3145 76.8228 37.3145Z" stroke="#7E2989" stroke-width="1.07462" stroke-miterlimit="10"/>
<path d="M55.0683 39.7222H9.20323C8.30787 39.7222 7.58203 40.4454 7.58203 41.3376C7.58203 42.2298 8.30787 42.9531 9.20323 42.9531H55.0683C55.9636 42.9531 56.6895 42.2298 56.6895 41.3376C56.6895 40.4454 55.9636 39.7222 55.0683 39.7222Z" fill="#7E2989"/>
<path d="M76.8228 54.1665H6.93864C5.96073 54.1665 5.16797 54.9593 5.16797 55.9372V59.9269C5.16797 60.9049 5.96073 61.6976 6.93864 61.6976H76.8228C77.8007 61.6976 78.5934 60.9049 78.5934 59.9269V55.9372C78.5934 54.9593 77.8007 54.1665 76.8228 54.1665Z" stroke="#7E2989" stroke-width="1.07462" stroke-miterlimit="10"/>
<path d="M38.3848 56.5742H8.89279C8.16888 56.5742 7.58203 57.1611 7.58203 57.885V58.4944C7.58203 59.2183 8.16888 59.8051 8.89279 59.8051H38.3848C39.1088 59.8051 39.6956 59.2183 39.6956 58.4944V57.885C39.6956 57.1611 39.1088 56.5742 38.3848 56.5742Z" fill="#7E2989"/>
<path d="M63.1686 67.4077H30.8265C28.9548 67.4077 27.4375 68.3826 27.4375 69.5853V76.6653C27.4375 77.8679 28.9548 78.8428 30.8265 78.8428H63.1686C65.0403 78.8428 66.5576 77.8679 66.5576 76.6653V69.5853C66.5576 68.3826 65.0403 67.4077 63.1686 67.4077Z" fill="#7E2986"/>
<path d="M36.8451 73.3338C36.8315 73.1966 36.7731 73.09 36.67 73.0141C36.5668 72.9381 36.4268 72.9001 36.2499 72.9001C36.1297 72.9001 36.0283 72.9171 35.9455 72.9512C35.8627 72.984 35.7993 73.0299 35.755 73.0889C35.712 73.1479 35.6904 73.2147 35.6904 73.2896C35.6882 73.3519 35.7012 73.4063 35.7295 73.4528C35.759 73.4993 35.7993 73.5396 35.8503 73.5736C35.9013 73.6064 35.9602 73.6354 36.0271 73.6603C36.094 73.6841 36.1655 73.7045 36.2414 73.7215L36.5543 73.7963C36.7062 73.8304 36.8457 73.8757 36.9727 73.9324C37.0996 73.9891 37.2096 74.0588 37.3026 74.1416C37.3955 74.2243 37.4675 74.3218 37.5186 74.4341C37.5707 74.5463 37.5973 74.675 37.5985 74.8201C37.5973 75.0332 37.5429 75.218 37.4352 75.3745C37.3287 75.5298 37.1745 75.6506 36.9727 75.7367C36.772 75.8217 36.5299 75.8643 36.2465 75.8643C35.9653 75.8643 35.7205 75.8212 35.5119 75.735C35.3044 75.6489 35.1423 75.5213 35.0255 75.3524C34.9099 75.1823 34.8492 74.972 34.8435 74.7215H35.5561C35.564 74.8382 35.5975 74.9357 35.6564 75.014C35.7165 75.0911 35.7964 75.1494 35.8962 75.1891C35.9971 75.2277 36.111 75.2469 36.238 75.2469C36.3627 75.2469 36.471 75.2288 36.5628 75.1925C36.6558 75.1562 36.7278 75.1058 36.7788 75.0412C36.8298 74.9766 36.8553 74.9023 36.8553 74.8184C36.8553 74.7402 36.8321 74.6744 36.7856 74.6211C36.7402 74.5678 36.6734 74.5225 36.5849 74.4851C36.4976 74.4477 36.3905 74.4137 36.2635 74.383L35.8843 74.2878C35.5907 74.2164 35.3588 74.1047 35.1887 73.9528C35.0187 73.8009 34.9342 73.5962 34.9354 73.3389C34.9342 73.128 34.9903 72.9438 35.1037 72.7862C35.2182 72.6286 35.3752 72.5056 35.5748 72.4172C35.7743 72.3287 36.0011 72.2845 36.255 72.2845C36.5135 72.2845 36.7391 72.3287 36.9318 72.4172C37.1257 72.5056 37.2765 72.6286 37.3842 72.7862C37.4919 72.9438 37.5475 73.1263 37.5509 73.3338H36.8451ZM40.4366 72.3321H41.1729V74.5939C41.1729 74.8479 41.1123 75.0701 40.991 75.2606C40.8708 75.451 40.7024 75.5995 40.4859 75.7061C40.2693 75.8115 40.0171 75.8643 39.7291 75.8643C39.44 75.8643 39.1872 75.8115 38.9707 75.7061C38.7541 75.5995 38.5858 75.451 38.4656 75.2606C38.3454 75.0701 38.2853 74.8479 38.2853 74.5939V72.3321H39.0217V74.531C39.0217 74.6636 39.0506 74.7816 39.1084 74.8847C39.1674 74.9879 39.2501 75.069 39.3567 75.1279C39.4633 75.1869 39.5874 75.2163 39.7291 75.2163C39.872 75.2163 39.9961 75.1869 40.1016 75.1279C40.2081 75.069 40.2903 74.9879 40.3481 74.8847C40.4071 74.7816 40.4366 74.6636 40.4366 74.531V72.3321ZM41.9703 75.8149V72.3321H43.3648C43.621 72.3321 43.8347 72.3701 44.0059 72.4461C44.1771 72.522 44.3058 72.6275 44.3919 72.7624C44.4781 72.8962 44.5212 73.0504 44.5212 73.2249C44.5212 73.361 44.494 73.4806 44.4396 73.5838C44.3851 73.6858 44.3103 73.7697 44.2151 73.8355C44.121 73.9001 44.0133 73.946 43.892 73.9732V74.0072C44.0246 74.0129 44.1488 74.0503 44.2644 74.1195C44.3812 74.1886 44.4758 74.2855 44.5484 74.4103C44.621 74.5338 44.6572 74.6812 44.6572 74.8524C44.6572 75.0372 44.6113 75.2022 44.5195 75.3473C44.4288 75.4913 44.2944 75.6052 44.1165 75.6891C43.9385 75.773 43.7191 75.8149 43.4583 75.8149H41.9703ZM42.7067 75.2129H43.307C43.5122 75.2129 43.6618 75.1738 43.7559 75.0956C43.85 75.0162 43.8971 74.9108 43.8971 74.7793C43.8971 74.6829 43.8738 74.5979 43.8274 74.5242C43.7809 74.4505 43.7145 74.3927 43.6284 74.3507C43.5434 74.3088 43.4419 74.2878 43.324 74.2878H42.7067V75.2129ZM42.7067 73.7895H43.2526C43.3535 73.7895 43.443 73.772 43.5212 73.7368C43.6006 73.7005 43.663 73.6495 43.7083 73.5838C43.7548 73.518 43.778 73.4392 43.778 73.3474C43.778 73.2215 43.7333 73.1201 43.6437 73.043C43.5553 72.9659 43.4294 72.9273 43.2662 72.9273H42.7067V73.7895ZM45.3279 72.3321H46.236L47.1952 74.6721H47.236L48.1951 72.3321H49.1032V75.8149H48.389V73.5481H48.3601L47.4588 75.7979H46.9724L46.0711 73.5396H46.0422V75.8149H45.3279V72.3321ZM50.6378 72.3321V75.8149H49.9015V72.3321H50.6378ZM51.3026 72.9392V72.3321H54.163V72.9392H53.0967V75.8149H52.3688V72.9392H51.3026Z" fill="white"/>
<path d="M68.6195 84.4907C66.3533 81.8927 64.0913 79.2933 61.8252 76.6953C61.1245 75.8914 60.405 75.048 60.1236 74.0196C59.8423 72.9911 60.1534 71.7174 61.0986 71.2299C61.7509 70.8938 62.5609 70.9964 63.2173 71.3162C63.8738 71.636 64.4163 72.1541 64.942 72.6643C69.2885 76.853 73.6365 81.0458 77.983 85.2345" fill="white"/>
<path d="M68.6195 84.4907C66.3533 81.8927 64.0913 79.2933 61.8252 76.6953C61.1245 75.8914 60.405 75.048 60.1236 74.0196C59.8423 72.9911 60.1534 71.7174 61.0986 71.2299C61.7509 70.8938 62.5609 70.9964 63.2173 71.3162C63.8738 71.636 64.4163 72.1541 64.942 72.6643C69.2885 76.853 73.6365 81.0458 77.983 85.2345" stroke="#7E2989" stroke-width="0.5625"/>
<path d="M68.8655 84.3196C67.1259 82.3241 65.3863 80.3287 63.6452 78.3291C62.8045 77.3672 61.8955 76.4345 61.1508 75.3919C60.5371 74.5336 60.0768 73.4583 60.4771 72.4072C60.6396 71.9832 60.9329 71.614 61.3658 71.44C61.8833 71.2311 62.4793 71.318 62.9735 71.534C63.4955 71.7631 63.9381 72.1319 64.3535 72.5151C64.8055 72.9361 65.2441 73.3711 65.6895 73.7991C67.5879 75.6311 69.4905 77.4615 71.389 79.2935C73.5214 81.3516 75.658 83.4082 77.7904 85.4662C78.0681 85.7368 78.4571 85.2731 78.1753 85.004C74.1403 81.1154 70.1053 77.2269 66.0744 73.3369C65.2189 72.5145 64.3702 71.5046 63.2659 71.0077C62.2757 70.5578 61.02 70.606 60.3006 71.5031C59.6642 72.2964 59.5908 73.4198 59.9143 74.3592C60.3396 75.5952 61.3113 76.5609 62.1521 77.5228C64.2244 79.9034 66.3008 82.2825 68.3717 84.6589C68.6237 84.948 69.1201 84.6031 68.8626 84.3114L68.8655 84.3196Z" fill="#7E2989" stroke="#7E2989" stroke-width="0.5625"/>
<path d="M70.4688 86.667L71.5991 88.2817C72.2486 89.2096 72.9781 90.079 73.779 90.8799V90.8799L74.3563 91.4572C74.5507 91.6516 74.8477 91.6997 75.0935 91.5767V91.5767C75.2169 91.5149 75.317 91.4148 75.3788 91.2913V91.2913C75.5017 91.0455 75.4534 90.7486 75.2591 90.5543L74.9827 90.2781L70.7697 86.667" stroke="#7E2989" stroke-width="0.84375" stroke-linecap="round"/>
<path d="M76.2978 82.6254C75.9359 81.9916 75.4893 81.2122 75.7975 80.472C76.0862 79.7804 76.7738 79.839 77.3418 80.1443C78.0438 80.5265 78.6807 81.0755 79.331 81.5456C80.0444 82.0625 80.7577 82.5795 81.4711 83.0964C81.7836 83.3221 82.1741 82.8625 81.856 82.6341C80.973 81.993 80.0859 81.3532 79.2029 80.712C78.5148 80.2138 77.7979 79.5454 76.95 79.3499C76.1672 79.1681 75.4552 79.6089 75.2009 80.3575C74.8875 81.2894 75.3504 82.1787 75.8028 82.9744C75.9924 83.3091 76.4874 82.9601 76.2937 82.6269L76.2978 82.6254Z" fill="#7E2989" stroke="#7E2989" stroke-width="0.5625"/>
<path d="M79.277 80.8249C79.207 80.0631 79.1195 79.252 79.3822 78.5142C79.6153 77.8611 80.1117 77.3357 80.8281 77.2683C82.4495 77.1166 83.43 78.6996 84.1466 79.8958C84.3444 80.2275 84.8353 79.88 84.6374 79.5483C83.7903 78.1304 82.5326 76.3554 80.619 76.686C79.7955 76.829 79.1708 77.4097 78.8632 78.1775C78.5192 79.037 78.5903 79.9697 78.673 80.8705C78.7094 81.2555 79.3093 81.2114 79.2729 80.8264L79.277 80.8249Z" fill="#7E2989" stroke="#7E2989" stroke-width="0.5625"/>
<path d="M68.0046 85.0021C66.5733 84.6643 64.7826 84.2796 63.5027 85.253C62.4707 86.0402 61.9363 87.607 62.9439 88.634C63.4547 89.1542 64.1957 89.3742 64.8512 89.6527C65.5776 89.9612 66.2883 90.3032 66.9859 90.673C68.3546 91.4037 69.6585 92.2502 70.8848 93.2032C72.2782 94.2861 73.5657 95.4996 74.721 96.8346C74.9729 97.1237 75.4653 96.7803 75.2118 96.4871C73.3037 94.2929 71.0704 92.4052 68.5841 90.8954C67.3654 90.1572 66.0909 89.5084 64.772 88.9682C64.1808 88.7268 63.4339 88.4904 63.1222 87.8802C62.8452 87.3408 63.0436 86.6816 63.383 86.2218C64.4362 84.7975 66.4228 85.2507 67.8887 85.5946C68.2684 85.6851 68.3746 85.0914 68.0005 85.0036L68.0046 85.0021Z" fill="#7E2989" stroke="#7E2989" stroke-width="0.5625"/>
<path d="M70.0798 86.7298C70.7056 87.6346 71.3721 88.5109 72.086 89.3516C72.4317 89.7599 72.7867 90.1555 73.154 90.5467C73.5213 90.9379 73.8907 91.3607 74.3066 91.7067C74.6283 91.9708 75.0687 92.1274 75.4549 91.9008C75.8411 91.6742 75.8682 91.234 75.6697 90.8747C75.4383 90.4625 75.0266 90.115 74.6977 89.7794C74.3111 89.3859 73.9177 88.9994 73.5149 88.6256C72.6208 87.7986 71.6837 87.0195 70.7076 86.2867C70.3978 86.0554 70.0114 86.5136 70.3228 86.749C71.7783 87.8373 73.1496 89.0391 74.4159 90.3482C74.5642 90.5032 74.718 90.6609 74.8637 90.8216C74.9597 90.9213 75.1945 91.124 75.1953 91.2811C75.1965 91.452 74.9919 91.4236 74.8819 91.3752C74.6787 91.2861 74.5127 91.0818 74.3562 90.9297C73.7019 90.2805 73.0744 89.6031 72.482 88.8946C71.8048 88.0916 71.1709 87.2545 70.5736 86.3904C70.3526 86.0716 69.8618 86.4192 70.0827 86.738L70.0798 86.7298Z" fill="#7E2989"/>
<path d="M89.0491 20.7098C89.0491 15.596 84.1089 17.0454 86.9362 21.3324C84.1089 17.0454 80.7406 20.9343 85.4868 22.9961C80.7406 20.9343 80.0057 26.0276 85.1704 25.1804C80.0057 26.0276 82.1389 30.7126 86.089 27.1912C82.1389 30.7126 86.4769 33.4992 87.9467 28.3854C86.4769 33.4992 91.6212 33.4992 90.1514 28.3854C91.6212 33.4992 95.9592 30.7229 92.0091 27.1912C95.9592 30.7126 98.0925 26.0276 92.9277 25.1804C98.0925 26.0276 97.3678 20.9343 92.6113 22.9961C97.3576 20.9343 93.9893 17.0352 91.1619 21.3324C93.9893 17.0454 89.0491 15.596 89.0491 20.7098Z" fill="#7E2986"/>
<path d="M89.0485 30.3655C92.2617 30.3655 94.8665 27.7607 94.8665 24.5475C94.8665 21.3343 92.2617 18.7295 89.0485 18.7295C85.8353 18.7295 83.2305 21.3343 83.2305 24.5475C83.2305 27.7607 85.8353 30.3655 89.0485 30.3655Z" fill="#7E2986"/>
<path d="M85.9273 25.1395C86.3356 26.1398 86.9276 27.0482 87.7237 27.7933C87.9891 28.0383 88.4995 28.0383 88.673 27.6708C89.5712 25.7621 90.694 23.9555 92.0311 22.3224C92.2353 22.0672 92.2761 21.7099 92.0311 21.465C91.8168 21.2506 91.3779 21.2098 91.1737 21.465C89.7754 23.1798 88.5811 25.0476 87.6319 27.0584L88.5811 26.9359C87.9483 26.3439 87.4277 25.6192 87.1011 24.8129C86.9786 24.5067 86.703 24.2923 86.356 24.3944C86.0702 24.476 85.8048 24.8333 85.9375 25.1395H85.9273Z" fill="#F6F7F7"/>
<path d="M89.0491 36.9598C89.0491 31.846 84.1089 33.2954 86.9362 37.5824C84.1089 33.2954 80.7406 37.1843 85.4868 39.2461C80.7406 37.1843 80.0057 42.2776 85.1704 41.4304C80.0057 42.2776 82.1389 46.9626 86.089 43.4412C82.1389 46.9626 86.4769 49.7492 87.9467 44.6354C86.4769 49.7492 91.6212 49.7492 90.1514 44.6354C91.6212 49.7492 95.9592 46.9729 92.0091 43.4412C95.9592 46.9626 98.0925 42.2776 92.9277 41.4304C98.0925 42.2776 97.3678 37.1843 92.6113 39.2461C97.3576 37.1843 93.9893 33.2852 91.1619 37.5824C93.9893 33.2954 89.0491 31.846 89.0491 36.9598Z" fill="#7E2986"/>
<path d="M89.0485 46.6155C92.2617 46.6155 94.8665 44.0107 94.8665 40.7975C94.8665 37.5843 92.2617 34.9795 89.0485 34.9795C85.8353 34.9795 83.2305 37.5843 83.2305 40.7975C83.2305 44.0107 85.8353 46.6155 89.0485 46.6155Z" fill="#7E2986"/>
<path d="M85.9273 41.3895C86.3356 42.3898 86.9276 43.2982 87.7237 44.0433C87.9891 44.2883 88.4995 44.2883 88.673 43.9208C89.5712 42.0121 90.694 40.2055 92.0311 38.5724C92.2353 38.3172 92.2761 37.9599 92.0311 37.715C91.8168 37.5006 91.3779 37.4598 91.1737 37.715C89.7754 39.4298 88.5811 41.2976 87.6319 43.3084L88.5811 43.1859C87.9483 42.5939 87.4277 41.8692 87.1011 41.0629C86.9786 40.7567 86.703 40.5423 86.356 40.6444C86.0702 40.7261 85.8048 41.0833 85.9375 41.3895H85.9273Z" fill="#F6F7F7"/>
<path d="M89.0491 53.8113C89.0491 48.6976 84.1089 50.147 86.9362 54.434C84.1089 50.147 80.7406 54.0359 85.4868 56.0977C80.7406 54.0359 80.0057 59.1292 85.1704 58.282C80.0057 59.1292 82.1389 63.8142 86.089 60.2928C82.1389 63.8142 86.4769 66.6007 87.9467 61.487C86.4769 66.6007 91.6212 66.6007 90.1514 61.487C91.6212 66.6007 95.9592 63.8244 92.0091 60.2928C95.9592 63.8142 98.0925 59.1292 92.9277 58.282C98.0925 59.1292 97.3678 54.0359 92.6113 56.0977C97.3576 54.0359 93.9893 50.1368 91.1619 54.434C93.9893 50.147 89.0491 48.6976 89.0491 53.8113Z" fill="#7E2986"/>
<path d="M89.0485 63.4671C92.2617 63.4671 94.8665 60.8623 94.8665 57.6491C94.8665 54.4359 92.2617 51.8311 89.0485 51.8311C85.8353 51.8311 83.2305 54.4359 83.2305 57.6491C83.2305 60.8623 85.8353 63.4671 89.0485 63.4671Z" fill="#7E2986"/>
<path d="M85.9273 58.2411C86.3356 59.2414 86.9276 60.1498 87.7237 60.8949C87.9891 61.1399 88.4995 61.1399 88.673 60.7724C89.5712 58.8637 90.694 57.0571 92.0311 55.4239C92.2353 55.1688 92.2761 54.8115 92.0311 54.5665C91.8168 54.3522 91.3779 54.3114 91.1737 54.5665C89.7754 56.2813 88.5811 58.1492 87.6319 60.16L88.5811 60.0375C87.9483 59.4455 87.4277 58.7208 87.1011 57.9144C86.9786 57.6082 86.703 57.3939 86.356 57.496C86.0702 57.5776 85.8048 57.9349 85.9375 58.2411H85.9273Z" fill="#F6F7F7"/>
<rect x="17.8047" width="52.9626" height="6.01848" rx="3.00924" fill="#7E2989"/>
<rect x="17.8047" y="7.82373" width="52.9626" height="4.21294" rx="2.10647" fill="#7E2989"/>
</svg>
