<svg width="101" height="100" viewBox="0 0 101 100" fill="none" xmlns="http://www.w3.org/2000/svg">
<path d="M73.3996 9.3335H27.2242C23.5105 9.3335 20.5 12.344 20.5 16.0577V83.9604C20.5 87.674 23.5105 90.6845 27.2242 90.6845H73.3996C77.1132 90.6845 80.1237 87.674 80.1237 83.9604V16.0577C80.1237 12.344 77.1132 9.3335 73.3996 9.3335Z" stroke="#7E2A8D" stroke-width="1.63975" stroke-linecap="round" stroke-linejoin="round"/>
<path d="M31.3047 23.3267H69.2789" stroke="#7E2A8D" stroke-width="1.63975" stroke-linecap="round" stroke-linejoin="round"/>
<path d="M31.3047 32.5386H69.2789" stroke="#7E2A8D" stroke-width="1.63975" stroke-linecap="round" stroke-linejoin="round"/>
<path d="M31.3047 41.1274H69.2789" stroke="#7E2A8D" stroke-width="1.63975" stroke-linecap="round" stroke-linejoin="round"/>
<path d="M38.5 48L63.1667 48" stroke="#7E2A8D" stroke-width="1.63975" stroke-linecap="round" stroke-linejoin="round"/>
<path d="M38.5 53.3335L63.1667 53.3335" stroke="#7E2A8D" stroke-width="1.63975" stroke-linecap="round" stroke-linejoin="round"/>
<path d="M28.8594 75.6958H56.1927" stroke="#7E2986" stroke-width="1.63975" stroke-linecap="round" stroke-linejoin="round"/>
<path d="M28.8594 81.6958H56.1927" stroke="#7E2986" stroke-width="1.63975" stroke-linecap="round" stroke-linejoin="round"/>
<path d="M69.4363 74.1951C69.4363 69.2232 64.6331 70.6324 67.382 74.8005C64.6331 70.6324 61.3582 74.4135 65.9728 76.4181C61.3582 74.4135 60.6437 79.3655 65.6652 78.5418C60.6437 79.3655 62.7178 83.9206 66.5583 80.4968C62.7178 83.9206 66.9354 86.6298 68.3645 81.6579C66.9354 86.6298 71.9371 86.6298 70.508 81.6579C71.9371 86.6298 76.1547 83.9305 72.3142 80.4968C76.1547 83.9206 78.2288 79.3655 73.2073 78.5418C78.2288 79.3655 77.5243 74.4135 72.8997 76.4181C77.5143 74.4135 74.2394 70.6225 71.4905 74.8005C74.2394 70.6324 69.4363 69.2232 69.4363 74.1951Z" fill="#7E2986"/>
<path d="M69.434 83.5823C72.558 83.5823 75.0906 81.0497 75.0906 77.9257C75.0906 74.8016 72.558 72.269 69.434 72.269C66.3099 72.269 63.7773 74.8016 63.7773 77.9257C63.7773 81.0497 66.3099 83.5823 69.434 83.5823Z" fill="#7E2986"/>
<path d="M66.3993 78.5014C66.7962 79.474 67.3718 80.3572 68.1459 81.0817C68.4039 81.3198 68.9001 81.3198 69.0688 80.9626C69.9421 79.1068 71.0337 77.3503 72.3338 75.7624C72.5323 75.5143 72.5719 75.167 72.3338 74.9288C72.1254 74.7204 71.6986 74.6807 71.5002 74.9288C70.1406 76.5961 68.9795 78.4121 68.0566 80.3671L68.9795 80.2481C68.3642 79.6725 67.8581 78.9679 67.5405 78.1839C67.4214 77.8862 67.1535 77.6778 66.8161 77.777C66.5382 77.8564 66.2802 78.2037 66.4092 78.5014H66.3993Z" fill="#F6F7F7"/>
</svg>
