<svg width="37" height="37" viewBox="0 0 37 37" fill="none" xmlns="http://www.w3.org/2000/svg">
<circle cx="18.5" cy="18.5" r="18.5" fill="#7E2D8A"/>
<path d="M16.2929 19.2929C15.9024 19.6834 15.9024 20.3166 16.2929 20.7071C16.6834 21.0976 17.3166 21.0976 17.7071 20.7071L16.2929 19.2929ZM28 10C28 9.44771 27.5523 9 27 9L18 9C17.4477 9 17 9.44771 17 10C17 10.5523 17.4477 11 18 11L26 11L26 19C26 19.5523 26.4477 20 27 20C27.5523 20 28 19.5523 28 19L28 10ZM17 20L17.7071 20.7071L27.7071 10.7071L27 10L26.2929 9.29289L16.2929 19.2929L17 20Z" fill="white"/>
<path d="M27 27C25.0753 27 18.7921 27 13.999 27C11.7898 27 10 25.2091 10 23V19V11" stroke="white" stroke-width="2" stroke-linecap="round"/>
</svg>
