<svg width="58" height="46" viewBox="0 0 58 46" fill="none" xmlns="http://www.w3.org/2000/svg">
<mask id="mask0_2875_16526" style="mask-type:luminance" maskUnits="userSpaceOnUse" x="0" y="0" width="58" height="46">
<path d="M0 0.136719H58V45.1367H0V0.136719Z" fill="white"/>
</mask>
<g mask="url(#mask0_2875_16526)">
<path fill-rule="evenodd" clip-rule="evenodd" d="M0 0.136719V45.1367H58V0.136719H0Z" fill="#F7FCFF"/>
<mask id="mask1_2875_16526" style="mask-type:luminance" maskUnits="userSpaceOnUse" x="0" y="0" width="58" height="46">
<path fill-rule="evenodd" clip-rule="evenodd" d="M0 0.136719V45.1367H58V0.136719H0Z" fill="white"/>
</mask>
<g mask="url(#mask1_2875_16526)">
<path fill-rule="evenodd" clip-rule="evenodd" d="M0 0.136719V15.1367H58V0.136719H0Z" fill="#FF8C1A"/>
<path fill-rule="evenodd" clip-rule="evenodd" d="M0 30.1367V45.1367H58V30.1367H0Z" fill="#5EAA22"/>
<path fill-rule="evenodd" clip-rule="evenodd" d="M21.749 22.6367C21.749 26.7788 24.995 30.1367 28.999 30.1367C33.003 30.1367 36.249 26.7788 36.249 22.6367C36.249 18.4946 33.003 15.1367 28.999 15.1367C24.995 15.1367 21.749 18.4946 21.749 22.6367ZM34.4365 22.6367C34.4365 25.7434 32.0022 28.2617 28.999 28.2617C25.9959 28.2617 23.5615 25.7434 23.5615 22.6367C23.5615 19.53 25.9959 17.0117 28.999 17.0117C32.0022 17.0117 34.4365 19.53 34.4365 22.6367Z" fill="#3D58DB"/>
<path fill-rule="evenodd" clip-rule="evenodd" d="M28.9906 24.2482L27.9561 30.0993L28.5569 24.1837L25.9707 29.4961L28.1582 23.9953L24.2299 28.3389L27.8268 23.6984L22.8747 26.7211L27.5899 23.3169L22.0152 24.7739L27.4663 22.8819L21.7207 22.655L27.4663 22.4283L22.0152 20.5363L27.5899 21.9933L22.8747 18.5891L27.8268 21.6118L24.2299 16.9713L28.1582 21.3149L25.9707 15.814L28.5569 21.1265L27.9561 15.2109L28.9906 21.062L30.0254 15.2109L29.4246 21.1265L32.0108 15.814L29.8233 21.3149L33.7515 16.9713L30.1546 21.6118L35.1067 18.5891L30.3915 21.9933L35.9662 20.5363L30.5151 22.4283L36.2608 22.655L30.5151 22.8819L35.9662 24.7739L30.3915 23.3169L35.1067 26.7211L30.1546 23.6984L33.7515 28.3389L29.8233 23.9953L32.0108 29.4961L29.4246 24.1837L30.0254 30.0993L28.9906 24.2482Z" fill="#3D58DB"/>
</g>
</g>
</svg>
